<svg width="50" height="48" viewBox="0 0 50 48" fill="none" xmlns="http://www.w3.org/2000/svg">
<g clip-path="url(#clip0)">
<path d="M49.99 18.3505C49.9848 18.2953 49.9734 18.2409 49.9558 18.1881C49.9444 18.1409 49.9285 18.0949 49.9083 18.0504C49.885 18.007 49.8571 17.966 49.825 17.928C49.7929 17.8829 49.7557 17.8414 49.7142 17.804C49.7008 17.7928 49.695 17.7775 49.6809 17.7664L41.6663 11.7909V5.59784C41.6663 4.27234 40.5469 3.19772 39.1662 3.19772H30.1349L26.5188 0.502367C25.6255 -0.166479 24.3728 -0.166479 23.4795 0.502367L19.8626 3.19772H10.8313C9.45054 3.19772 8.33114 4.27225 8.33114 5.59784V11.791L0.31912 17.7665C0.304959 17.7777 0.2991 17.7929 0.285818 17.8041C0.244312 17.8414 0.207103 17.883 0.174972 17.9281C0.142939 17.9661 0.115008 18.007 0.0916672 18.0505C0.0714513 18.0949 0.0556302 18.141 0.0442039 18.1882C0.0268202 18.2402 0.0153938 18.2938 0.0100225 18.3482C0.0100225 18.365 6.10352e-05 18.3794 6.10352e-05 18.3962V45.5998C0.00123297 46.1087 0.172726 46.6037 0.489246 47.0119C0.494227 47.0191 0.495105 47.0279 0.500867 47.0343C0.506727 47.0406 0.519228 47.0479 0.527529 47.0567C0.995717 47.6481 1.72388 47.9967 2.49765 47.9999H47.4999C48.2767 47.9977 49.0079 47.6473 49.4767 47.0527C49.4833 47.0448 49.4934 47.0423 49.4991 47.0344C49.505 47.0264 49.5058 47.0192 49.5108 47.012C49.8274 46.6037 49.9989 46.1087 50 45.5999V18.3985C49.9999 18.3817 49.9909 18.3672 49.99 18.3505ZM24.4987 1.76478C24.7897 1.54276 25.2018 1.54276 25.4928 1.76478L27.4154 3.19763H22.5819L24.4987 1.76478ZM2.70762 46.3999L24.4988 30.1502C24.79 29.9286 25.2018 29.9286 25.4929 30.1502L47.2898 46.3999H2.70762ZM48.3333 45.1526L26.5188 28.8877C25.6253 28.2195 24.373 28.2195 23.4795 28.8877L1.66421 45.1526V19.6169L15.3208 29.7975C15.6846 30.0683 16.2083 30.0047 16.4904 29.6554C16.7726 29.3061 16.7064 28.8034 16.3425 28.5325L2.46845 18.1904L8.33124 13.8166V19.9985C8.33124 20.4403 8.7044 20.7985 9.16459 20.7985C9.62486 20.7985 9.99793 20.4403 9.99793 19.9985V5.59775C9.99793 5.15588 10.371 4.79774 10.8313 4.79774H39.166C39.6263 4.79774 39.9993 5.15588 39.9993 5.59775V19.9985C39.9993 20.4403 40.3724 20.7985 40.8327 20.7985C41.293 20.7985 41.666 20.4403 41.666 19.9985V13.8166L47.5288 18.1904L33.6307 28.551C33.3916 28.7249 33.2682 29.0088 33.3079 29.2943C33.3475 29.5798 33.5439 29.8228 33.8222 29.9305C34.1004 30.0382 34.4175 29.9941 34.6524 29.815L48.3331 19.6169V45.1526H48.3333Z" fill="#3A3A63"/>
<path d="M34.9992 19.1986V15.9984C34.9992 10.6962 30.5218 6.39795 24.9987 6.39795C19.4755 6.39795 14.9982 10.6962 14.9982 15.9984C14.9982 21.3006 19.4755 25.5989 24.9987 25.5989C25.4589 25.5989 25.832 25.2408 25.832 24.7989C25.832 24.357 25.4589 23.9989 24.9987 23.9989C20.3961 23.9989 16.665 20.417 16.665 15.9985C16.665 11.5801 20.3961 7.99816 24.9987 7.99816C29.6012 7.99816 33.3324 11.5801 33.3324 15.9985V19.1987C33.3324 20.0824 32.5862 20.7988 31.6656 20.7988C30.745 20.7988 29.9988 20.0824 29.9988 19.1987V15.9985C29.9988 15.5567 29.6258 15.1985 29.1655 15.1985C28.7052 15.1985 28.3321 15.5567 28.3321 15.9985C28.3321 17.7659 26.8397 19.1987 24.9987 19.1987C23.1577 19.1987 21.6652 17.7659 21.6652 15.9985C21.6652 14.2312 23.1577 12.7984 24.9987 12.7984C25.4589 12.7984 25.832 12.4403 25.832 11.9984C25.832 11.5565 25.4589 11.1984 24.9987 11.1984C22.7608 11.1936 20.792 12.6169 20.1787 14.6831C19.5654 16.7492 20.4567 18.955 22.3611 20.0834C24.2655 21.2119 26.719 20.9882 28.368 19.5356C28.5494 21.2275 30.0812 22.4855 31.8505 22.3956C33.6198 22.3056 35.0047 20.8995 34.9992 19.1986Z" fill="#3A3A63"/>
</g>
<defs>
<clipPath id="clip0">
<rect width="50" height="48" fill="white" transform="translate(0 0.000244141)"/>
</clipPath>
</defs>
</svg>
