<svg viewBox="0 0 50 43" fill="none" xmlns="http://www.w3.org/2000/svg">
<path d="M48.5 6.00024H1V37.0002H48.5V6.00024Z" fill="white"/>
<path d="M47.5 5.01685H2.5C1.11934 5.01685 0 5.97939 0 7.16685V35.8335C0 37.0209 1.11924 37.9835 2.5 37.9835H47.5C48.8807 37.9835 50 37.0209 50 35.8335V7.16685C50 5.97947 48.8808 5.01685 47.5 5.01685ZM48.3333 35.8336C48.3333 36.2294 47.9603 36.5502 47.5 36.5502H2.5C2.03975 36.5502 1.6667 36.2294 1.6667 35.8336V7.16685C1.6667 6.77103 2.03975 6.45021 2.5 6.45021H47.5C47.9603 6.45021 48.3333 6.77103 48.3333 7.16685V35.8336Z" fill="#3A3A63"/>
<path d="M45.9058 7.88607C45.6856 7.86952 45.4668 7.9289 45.2975 8.05118L26.0725 21.9401C25.4524 22.3883 24.5475 22.3883 23.9274 21.9401L4.70253 8.0511C4.47451 7.88649 4.16161 7.83895 3.88183 7.92646C3.60204 8.01398 3.39775 8.22327 3.34599 8.47547C3.29423 8.72768 3.40283 8.98442 3.63085 9.14902L22.8559 23.0373C24.0949 23.9345 25.9051 23.9345 27.1442 23.0373L46.3691 9.14911C46.5385 9.02691 46.6443 8.85189 46.6636 8.6625C46.6828 8.47312 46.6138 8.28491 46.4716 8.13936C46.3296 7.99365 46.1261 7.90261 45.9058 7.88607Z" fill="#3A3A63"/>
<path d="M16.0277 22.9389C15.7327 22.8822 15.4253 22.9674 15.2241 23.1614L3.55742 33.9114C3.34628 34.0974 3.26874 34.3671 3.35488 34.6162C3.44101 34.8654 3.67724 35.0549 3.97216 35.1115C4.26718 35.1681 4.5746 35.0829 4.77578 34.8889L16.4425 24.1389C16.6536 23.953 16.7311 23.6832 16.645 23.4341C16.5589 23.185 16.3227 22.9955 16.0277 22.9389Z" fill="#3A3A63"/>
<path d="M34.7759 23.1614C34.5748 22.9674 34.2673 22.8822 33.9723 22.9389C33.6772 22.9955 33.4411 23.185 33.355 23.4341C33.2688 23.6833 33.3464 23.953 33.5575 24.1389L45.2242 34.8889C45.5406 35.1676 46.0578 35.178 46.389 34.9123C46.7201 34.6465 46.7439 34.2021 46.4426 33.9113L34.7759 23.1614Z" fill="#3A3A63"/>
</svg>
