<svg width="57" height="78" viewBox="0 0 57 78" fill="none" xmlns="http://www.w3.org/2000/svg">
<ellipse cx="28.4982" cy="29.8496" rx="20.8256" ry="19.189" fill="url(#paint0_linear)"/>
<path d="M28.497 0C12.7845 0 0 12.853 0 28.6512C0 32.772 0.838938 36.7064 2.49226 40.3461C9.61729 56.0209 23.278 72.5702 27.296 77.2684C27.597 77.6196 28.0359 77.8219 28.4978 77.8219C28.9596 77.8219 29.3985 77.6196 29.6995 77.2684C33.716 72.571 47.3767 56.0225 54.5041 40.3461C56.1582 36.7064 56.9963 32.772 56.9963 28.6512C56.9948 12.853 44.2102 0 28.497 0ZM28.497 43.5327C20.335 43.5327 13.6939 36.8561 13.6939 28.6504C13.6939 20.4439 20.335 13.7673 28.497 13.7673C36.659 13.7673 43.3 20.4439 43.3 28.6504C43.3008 36.8561 36.6598 43.5327 28.497 43.5327Z" fill="url(#paint1_linear)"/>
<path d="M38.3081 21.3208H17.5922C16.9566 21.3208 16.4413 21.7877 16.4413 22.3637V36.2687C16.4413 36.8447 16.9565 37.3116 17.5922 37.3116H38.3081C38.9437 37.3116 39.459 36.8447 39.459 36.2687V22.3637C39.459 21.7877 38.9438 21.3208 38.3081 21.3208ZM38.6918 36.2688C38.6918 36.4608 38.52 36.6164 38.3081 36.6164H17.5922C17.3803 36.6164 17.2086 36.4608 17.2086 36.2688V22.3637C17.2086 22.1717 17.3803 22.0161 17.5922 22.0161H38.3081C38.52 22.0161 38.6918 22.1717 38.6918 22.3637V36.2688Z" fill="white"/>
<path d="M37.5737 22.7108C37.4723 22.7028 37.3716 22.7316 37.2937 22.7909L28.4433 29.5297C28.1578 29.7472 27.7412 29.7472 27.4558 29.5297L18.6054 22.7909C18.5005 22.711 18.3564 22.688 18.2276 22.7304C18.0988 22.7729 18.0048 22.8744 17.9809 22.9968C17.9571 23.1192 18.0071 23.2437 18.1121 23.3236L26.9625 30.0621C27.5329 30.4974 28.3662 30.4974 28.9367 30.0621L37.787 23.3236C37.8649 23.2643 37.9137 23.1794 37.9225 23.0875C37.9314 22.9956 37.8996 22.9043 37.8341 22.8337C37.7688 22.763 37.6751 22.7188 37.5737 22.7108Z" fill="white"/>
<path d="M23.8192 30.0298C23.6834 30.0024 23.5419 30.0437 23.4492 30.1378L18.0785 35.3538C17.9813 35.444 17.9456 35.5749 17.9852 35.6958C18.0249 35.8167 18.1336 35.9086 18.2694 35.9361C18.4052 35.9636 18.5467 35.9222 18.6393 35.8281L24.0101 30.6121C24.1073 30.5219 24.143 30.391 24.1034 30.2701C24.0637 30.1493 23.955 30.0573 23.8192 30.0298Z" fill="white"/>
<path d="M32.4507 30.1378C32.3582 30.0437 32.2166 30.0024 32.0808 30.0298C31.945 30.0573 31.8363 30.1493 31.7966 30.2701C31.757 30.3911 31.7927 30.5219 31.8899 30.6121L37.2607 35.8282C37.4063 35.9635 37.6444 35.9685 37.7968 35.8396C37.9493 35.7106 37.9603 35.495 37.8215 35.3539L32.4507 30.1378Z" fill="white"/>
<defs>
<linearGradient id="paint0_linear" x1="28.4982" y1="10.6606" x2="29.276" y2="68.8864" gradientUnits="userSpaceOnUse">
<stop stop-color="#CBD4A0"/>
<stop offset="1" stop-color="#A2DDC5"/>
</linearGradient>
<linearGradient id="paint1_linear" x1="28.0464" y1="-25.9409" x2="28.0464" y2="106.583" gradientUnits="userSpaceOnUse">
<stop offset="0.0283072" stop-color="#EACD83"/>
<stop offset="1" stop-color="#76E7ED"/>
</linearGradient>
</defs>
</svg>
