<svg width="51" height="69" viewBox="0 0 51 69" fill="none" xmlns="http://www.w3.org/2000/svg">
<path d="M25.2666 0C11.3353 0 0 11.396 0 25.4033C0 29.057 0.743837 32.5454 2.20974 35.7726C8.52709 49.6705 20.6392 64.3437 24.2018 68.5094C24.4687 68.8208 24.8578 69.0001 25.2673 69.0001C25.6768 69.0001 26.0659 68.8208 26.3328 68.5094C29.894 64.3444 42.0061 49.6719 48.3256 35.7726C49.7922 32.5454 50.5353 29.057 50.5353 25.4033C50.5339 11.396 39.1986 0 25.2666 0ZM25.2666 38.5979C18.0298 38.5979 12.1416 32.6782 12.1416 25.4026C12.1416 18.1264 18.0298 12.2067 25.2666 12.2067C32.5034 12.2067 38.3916 18.1264 38.3916 25.4026C38.3923 32.6782 32.5041 38.5979 25.2666 38.5979Z" fill="url(#paint0_linear)"/>
<ellipse cx="25.2677" cy="25.2675" rx="18.4648" ry="21.3803" fill="url(#paint1_linear)"/>
<g clip-path="url(#clip0)">
<path d="M25.2676 12.6343C17.7599 12.6343 11.662 18.2967 11.662 25.2681C11.662 32.2395 17.7599 37.9019 25.2676 37.9019C32.7754 37.9019 38.8733 32.2395 38.8733 25.2681C38.8733 18.2967 32.7754 12.6343 25.2676 12.6343ZM25.2676 36.806C18.4156 36.806 12.8422 31.6307 12.8422 25.2681C12.8422 18.9055 18.4156 13.7302 25.2676 13.7302C32.1197 13.7302 37.6931 18.9055 37.6931 25.2681C37.6931 31.6307 32.1197 36.806 25.2676 36.806Z" fill="white"/>
<path d="M32.3491 22.5283H28.2182V18.6925C28.2182 18.3881 27.9559 18.1445 27.6281 18.1445H22.9071C22.5792 18.1445 22.3169 18.3881 22.3169 18.6925V22.5283H18.1861C17.8582 22.5283 17.5959 22.7719 17.5959 23.0763V27.4601C17.5959 27.7645 17.8582 28.0081 18.1861 28.0081H22.3169V31.8439C22.3169 32.1483 22.5792 32.3918 22.9071 32.3918H27.6281C27.9559 32.3918 28.2182 32.1483 28.2182 31.8439V28.0081H32.3491C32.6769 28.0081 32.9392 27.7645 32.9392 27.4601V23.0763C32.9064 22.7719 32.6441 22.5283 32.3491 22.5283ZM31.7917 26.9121H31.7589H27.6281C27.3002 26.9121 27.0379 27.1556 27.0379 27.4601V31.2959H23.4972V27.4601C23.4972 27.1556 23.2349 26.9121 22.9071 26.9121H18.7762V23.6243H22.9071C23.2349 23.6243 23.4972 23.3807 23.4972 23.0763V19.2405H27.0707V23.0763C27.0707 23.3807 27.333 23.6243 27.6609 23.6243H31.7917V26.9121Z" fill="white"/>
</g>
<defs>
<linearGradient id="paint0_linear" x1="25.2677" y1="0" x2="25.2677" y2="69.0001" gradientUnits="userSpaceOnUse">
<stop stop-color="#BCEAC8"/>
<stop offset="1" stop-color="#76E7ED"/>
</linearGradient>
<linearGradient id="paint1_linear" x1="25.2677" y1="3.88721" x2="26.3567" y2="68.7555" gradientUnits="userSpaceOnUse">
<stop stop-color="#BCEAC8"/>
<stop offset="1" stop-color="#76E7ED"/>
</linearGradient>
<clipPath id="clip0">
<rect width="27.2113" height="25.2677" fill="white" transform="translate(11.662 12.6343)"/>
</clipPath>
</defs>
</svg>
