<svg width="48" height="48" viewBox="0 0 48 48" fill="none" xmlns="http://www.w3.org/2000/svg">
<path d="M29.4281 35.3159C33.3 28.894 38.1937 19.8659 38.1937 15.2252C38.1937 7.39712 31.8281 1.03149 24 1.03149C16.1718 1.03149 9.80621 7.39712 9.80621 15.2252C9.80621 19.8659 14.7 28.894 18.5718 35.3159C13.9781 35.6627 3.52496 36.9096 3.52496 41.044C3.52496 45.1127 14.1375 46.969 24.0093 46.969C33.8718 46.969 44.4937 45.1127 44.4937 41.044C44.4843 36.9096 34.0218 35.6627 29.4281 35.3159ZM11.7656 15.2252C11.7656 8.47524 17.2593 2.98149 24 2.98149C30.75 2.98149 36.2437 8.47524 36.2437 15.2252C36.2437 21.1221 26.85 35.9159 24 40.2659C21.15 35.9159 11.7656 21.1221 11.7656 15.2252ZM24 45.0096C12.0093 45.0096 5.47496 42.3846 5.47496 41.0346C5.47496 39.994 9.78746 37.7534 19.725 37.1815C21.5906 40.1909 23.0062 42.319 23.1937 42.5721C23.4468 42.9096 24.1875 43.3127 24.8156 42.5721C25.0125 42.3377 26.4187 40.1909 28.2843 37.1815C38.2218 37.7534 42.5343 39.9846 42.5343 41.0346C42.525 42.394 35.9906 45.0096 24 45.0096Z" fill="#3A3A63"/>
<path d="M30.1781 15.2252C30.1781 11.8127 27.4125 9.04712 24 9.04712C20.5875 9.04712 17.8218 11.8127 17.8218 15.2252C17.8218 18.6377 20.5875 21.4034 24 21.4034C27.4125 21.4034 30.1781 18.6377 30.1781 15.2252ZM19.7718 15.2252C19.7718 12.8909 21.6656 10.9971 24 10.9971C26.3343 10.9971 28.2281 12.8909 28.2281 15.2252C28.2281 17.5596 26.3343 19.4534 24 19.4534C21.6656 19.4534 19.7718 17.5596 19.7718 15.2252Z" fill="#3A3A63"/>
</svg>
