<svg width="50" height="50" viewBox="0 0 50 50" fill="none" xmlns="http://www.w3.org/2000/svg">
<g clip-path="url(#clip0)">
<path d="M38.3645 0.178887C37.6883 -0.179317 36.8842 0.0147266 36.4458 0.639435L21.9479 20.2825L7.33907 0.715705C6.89737 0.09334 6.09229 -0.0963088 5.41817 0.265313C4.73897 0.629669 4.45244 1.41414 4.73701 2.13045C4.74658 2.15457 4.75723 2.17821 4.76905 2.20145L9.03761 10.5488C9.24484 10.954 9.74113 11.1143 10.1461 10.9072C10.5512 10.7001 10.7116 10.2038 10.5045 9.79873L7.11407 3.16844L30.8236 34.9244C30.9854 35.1411 31.2332 35.2554 31.4844 35.2554C31.6559 35.2554 31.8288 35.2021 31.9766 35.0917C32.3412 34.8195 32.4161 34.3033 32.1439 33.9386L26.6637 26.5986L39.0235 2.11141C39.0351 2.08827 39.0458 2.06454 39.0552 2.04041C39.3361 1.32254 39.0456 0.539728 38.3645 0.178887ZM25.5623 25.1238L22.9775 21.6617L36.6824 3.09325L25.5623 25.1238Z" fill="#3A3A63"/>
<path d="M38.4392 40.3247C37.8931 39.5375 37.073 39.0103 36.1303 38.8398C35.1876 38.6691 34.2348 38.8762 33.4477 39.4225C31.8229 40.55 31.4182 42.7892 32.5456 44.414C33.2414 45.4168 34.3605 45.9548 35.4975 45.9548C36.2028 45.9548 36.915 45.7478 37.537 45.3162C39.162 44.1888 39.5666 41.9497 38.4392 40.3247ZM36.5979 43.9627C35.7192 44.5723 34.5087 44.3534 33.8993 43.475C33.2897 42.5964 33.5085 41.3857 34.387 40.7763C34.7154 40.5484 35.0969 40.4299 35.4883 40.4299C35.6043 40.4299 35.721 40.4403 35.8373 40.4613C36.347 40.5535 36.7904 40.8385 37.0856 41.2642C37.6952 42.1426 37.4763 43.3532 36.5979 43.9627Z" fill="#3A3A63"/>
<path d="M12.0524 41.7839C11.877 40.842 11.3454 40.0248 10.5554 39.4827C9.76545 38.9408 8.81183 38.7388 7.86974 38.9141C6.92785 39.0895 6.11066 39.6211 5.56857 40.4111C4.44972 42.042 4.86612 44.279 6.49708 45.3978C7.10128 45.8124 7.80138 46.028 8.51867 46.028C8.73908 46.028 8.96135 46.0077 9.18273 45.9664C10.1246 45.791 10.9418 45.2595 11.4838 44.4694C12.0258 43.6795 12.2277 42.7258 12.0524 41.7839ZM10.1251 43.5374C9.83215 43.9645 9.39025 44.2519 8.88107 44.3468C8.37189 44.4416 7.85617 44.3324 7.42912 44.0393C6.54747 43.4345 6.32228 42.225 6.92716 41.3433C7.30246 40.7961 7.91076 40.5018 8.52892 40.5018C8.90685 40.5018 9.28859 40.6118 9.62316 40.8414C10.0503 41.1345 10.3377 41.5763 10.4325 42.0855C10.5274 42.5946 10.4183 43.1103 10.1251 43.5374Z" fill="#3A3A63"/>
<path d="M47.4917 46.1851C47.0639 45.6237 46.4128 45.2817 45.7051 45.2467C44.6143 45.1929 43.09 45.0382 41.5929 44.6259C41.7229 44.272 41.8248 43.905 41.8934 43.5264C42.2024 41.8166 41.8271 40.0889 40.8366 38.6613C39.1229 36.1914 35.9656 35.2219 33.159 36.3033C32.7345 36.4668 32.5227 36.9436 32.6864 37.3681C32.85 37.7927 33.3268 38.004 33.7513 37.8407C35.8469 37.0331 38.2038 37.757 39.483 39.6005C40.2226 40.6665 40.5028 41.9566 40.2721 43.2333C40.1803 43.7416 40.0106 44.2227 39.7738 44.6653C39.7431 44.7099 39.7166 44.758 39.6946 44.8095C39.3417 45.4181 38.8564 45.947 38.2612 46.36C37.1952 47.0997 35.9052 47.3798 34.6284 47.1491C33.3516 46.9183 32.2414 46.2043 31.5017 45.1383C30.2505 43.335 30.3701 40.9058 31.7925 39.2309C32.0571 38.9193 32.0532 38.4607 31.7833 38.1537L22.8043 27.9412C22.6373 27.7512 22.3927 27.6489 22.1396 27.6627L21.8918 27.6766C21.7643 27.6536 21.6332 27.6609 21.5091 27.698L19.7091 27.7985L12.0118 12.746C11.8047 12.3409 11.3082 12.1805 10.9033 12.3876C10.4983 12.5947 10.3378 13.091 10.5449 13.4961L17.2621 26.6317L10.2249 36.1659C7.57541 35.4424 4.74249 36.4574 3.16241 38.7604C1.1333 41.7179 1.88858 45.7749 4.8462 47.8041C5.96847 48.5741 7.24865 48.9431 8.51662 48.943C10.5903 48.9429 12.6307 47.9557 13.8899 46.1204C15.4166 43.8949 15.393 40.9714 13.8968 38.7792L21.9686 29.4858L30.1023 38.737C28.6178 40.937 28.6097 43.8603 30.1481 46.0776C31.1386 47.505 32.6257 48.4615 34.3354 48.7706C34.7261 48.8411 35.1174 48.876 35.5061 48.876C36.5824 48.876 37.6369 48.6081 38.5889 48.0904C39.4502 48.8448 41.4442 49.9963 45.5978 50.0005C45.5985 50.0005 45.5994 50.0005 45.6002 50.0005C46.7036 50.0005 47.6787 49.2179 47.9195 48.1365C48.0718 47.4529 47.9158 46.7418 47.4917 46.1851ZM12.2127 38.2057C11.9449 38.5141 11.9435 38.9724 12.2097 39.2825C13.6408 40.9499 13.7732 43.3784 12.5314 45.1883C11.0161 47.3966 7.98674 47.9608 5.77843 46.4456C3.57003 44.9304 3.00596 41.9009 4.52111 39.6926C5.79064 37.8422 8.14367 37.1064 10.2435 37.9027C10.5889 38.0335 10.979 37.9187 11.1985 37.6216L18.1001 28.2706L18.4865 29.0261C18.6349 29.3164 18.9407 29.4916 19.2659 29.4736L19.8241 29.4424L12.2127 38.2057ZM46.3108 47.7803C46.2369 48.1122 45.9381 48.3527 45.6002 48.3527C45.6 48.3527 45.5996 48.3527 45.5994 48.3527C42.3969 48.3494 40.7444 47.6002 39.9811 47.0779C40.2912 46.7836 40.5693 46.4615 40.8131 46.1157C42.5652 46.6419 44.3645 46.83 45.6239 46.8922C45.8453 46.9032 46.0485 47.0093 46.1813 47.1836C46.2571 47.2833 46.3749 47.4928 46.3108 47.7803Z" fill="#3A3A63"/>
</g>
<defs>
<clipPath id="clip0">
<rect width="50" height="50" fill="white" transform="translate(0 0.000244141)"/>
</clipPath>
</defs>
</svg>
