<svg width="25" height="25" viewBox="0 0 25 25" fill="none" xmlns="http://www.w3.org/2000/svg">
<path d="M24.8366 5.09508H20.0186H19.8551V5.25858V5.78248V5.94597H20.0186H20.3534C20.7428 5.94597 21.0939 6.14582 21.2928 6.48061C21.4916 6.8154 21.4991 7.21935 21.3129 7.56127L15.9556 17.3947L13.5157 11.5781L15.8139 7.36088C16.2895 6.48813 17.2024 5.94597 18.1963 5.94597H18.3048H18.4683V5.78248V5.25858V5.09508H18.3048H13.4869H13.3234V5.25858V5.78248V5.94597H13.4869H13.8217C14.2111 5.94597 14.5622 6.14582 14.7611 6.48061C14.9599 6.8154 14.9674 7.21935 14.7811 7.56127L13.1142 10.621L11.6286 7.07945C11.5209 6.82276 11.5475 6.54252 11.7017 6.31074C11.8558 6.07895 12.1039 5.94597 12.3823 5.94597H12.7631H12.9266V5.78248V5.25858V5.09508H12.7631H7.00096H6.83746V5.25858V5.78248V5.94597H7.00096H7.0802C8.21689 5.94597 9.23542 6.62329 9.67517 7.67147L11.8702 12.9044L9.42393 17.3947L5.09692 7.07945C4.98923 6.82276 5.01588 6.54252 5.17 6.31074C5.32413 6.07895 5.57221 5.94597 5.85059 5.94597H6.43575H6.59924V5.78248V5.25858V5.09508H6.43575H0.163497H0V5.25858V5.78248V5.94597H0.163497H0.548479C1.68517 5.94597 2.70376 6.62329 3.14345 7.67147L8.13154 19.5627C8.21879 19.7707 8.42109 19.905 8.64699 19.905C8.85431 19.905 9.03737 19.7962 9.13672 19.6138L9.78739 18.4197L12.2716 13.8611L14.6632 19.5626C14.7505 19.7706 14.9528 19.905 15.1787 19.905C15.386 19.905 15.569 19.7961 15.6684 19.6137L16.3191 18.4197L22.3456 7.36077C22.8212 6.48802 23.734 5.94587 24.7279 5.94587H24.8365H25V5.78237V5.25847V5.09497H24.8366V5.09508Z" fill="#255EF3"/>
</svg>
