<svg width="45" height="45" viewBox="0 0 45 45" fill="none" xmlns="http://www.w3.org/2000/svg">
<path d="M32.9449 12.3815C33.2542 12.2376 33.3891 11.8701 33.245 11.5606C32.4862 9.9271 30.4926 9.08401 28.6966 9.98477C27.4288 7.96429 24.8357 7.13756 22.6178 8.16838C22.3081 8.31214 22.1739 8.67948 22.3172 8.98916C22.4615 9.29867 22.8291 9.43252 23.1385 9.28925C24.8174 8.50862 26.76 9.18597 27.6813 10.749C26.821 11.7214 26.5598 13.1466 27.1409 14.3974C27.2459 14.6228 27.4688 14.7551 27.7019 14.7551C28.1484 14.7551 28.4537 14.2888 28.262 13.8763C27.7671 12.8115 28.2306 11.5427 29.2954 11.048C30.3603 10.5531 31.6294 11.0167 32.1241 12.0816C32.268 12.3913 32.6354 12.525 32.9449 12.3815Z" fill="url(#paint0_linear)"/>
<path d="M16.236 14.6186C16.5461 14.7608 16.9127 14.6245 17.0551 14.3143C17.1974 14.004 17.0615 13.6371 16.751 13.4947C14.9935 12.689 12.8117 13.2959 11.8237 15.227C10.7301 14.8942 9.52 14.9291 8.40425 15.4471C8.09441 15.591 7.96039 15.9584 8.10416 16.2684C8.24809 16.5779 8.6156 16.7119 8.92494 16.5683C10.7114 15.7383 12.8395 16.5161 13.6695 18.3023C13.774 18.5275 13.9972 18.6598 14.2302 18.6598C14.6769 18.6598 14.9821 18.194 14.7904 17.7811C14.3799 16.8983 13.7313 16.2029 12.9588 15.7264C13.6551 14.4561 15.0801 14.0884 16.236 14.6186Z" fill="url(#paint1_linear)"/>
<path d="M26.9742 19.7542C26.6969 19.9535 26.6333 20.3397 26.8326 20.6168C27.0314 20.8939 27.4177 20.9577 27.6947 20.7584C28.8408 19.9366 30.434 20.1977 31.2564 21.3437C31.377 21.5121 31.5666 21.6013 31.7591 21.6013C32.2542 21.6012 32.5569 21.0357 32.2606 20.6229C31.0398 18.9218 28.6752 18.5333 26.9742 19.7542Z" fill="url(#paint2_linear)"/>
<path d="M21.7939 16.5702C21.5651 17.9619 20.254 18.9031 18.8616 18.6746C18.5245 18.6191 18.2069 18.8475 18.1515 19.1844C18.0964 19.521 18.3244 19.8391 18.661 19.8946C18.869 19.9287 19.0769 19.9454 19.2835 19.9454C21.0753 19.9454 22.7041 18.6541 23.0134 16.7705C23.0688 16.4337 22.8406 16.1156 22.504 16.0606C22.1672 16.0045 21.8493 16.2334 21.7939 16.5702Z" fill="url(#paint3_linear)"/>
<path d="M41.6783 15.7553C41.9764 13.7844 40.6884 11.6375 38.7714 10.8719C38.8405 10.1526 38.6751 9.39265 38.2859 8.67845C38.1228 8.37869 37.7474 8.26798 37.4473 8.43157C37.1479 8.595 37.0371 8.96995 37.2006 9.26971C37.5364 9.88624 37.6348 10.5601 37.4706 11.1192C37.3704 11.4591 37.5765 11.812 37.9194 11.8942C39.6208 12.3025 40.8306 14.2823 40.3963 15.8505C40.3241 16.1126 40.4312 16.3914 40.6608 16.5371C41.7678 17.2406 42.1448 19.128 41.2931 20.6499C41.0251 20.0276 40.57 19.2634 39.7404 18.5421C39.483 18.318 39.0927 18.3451 38.8684 18.6027C38.6447 18.8602 38.6718 19.2503 38.9294 19.4745C39.7292 20.1701 40.2491 21.0141 40.4533 22.0522C40.4592 22.0826 40.4467 22.1127 40.4566 22.1425C41.2283 24.3933 38.9603 27.1494 37.03 26.2806C36.9915 26.2632 36.9527 26.2862 36.913 26.2773C36.4841 26.014 36.0121 25.8324 35.4914 25.8324H32.44C32.0986 25.8324 31.8219 26.1087 31.8219 26.4503C31.8219 26.7914 32.0986 27.0681 32.44 27.0681H35.4908C36.4943 27.0681 37.2302 28.0134 36.9824 28.987C36.9742 29.0187 36.9311 29.256 36.7562 30.1946C36.4416 31.3945 35.3594 32.2305 34.1177 32.2305H30.1994C28.9576 32.2305 27.8755 31.3945 27.5609 30.1946C27.386 29.256 27.3433 29.0187 27.3353 28.987C27.0873 28.0145 27.8216 27.0681 28.8262 27.0681H29.7917C30.1334 27.0681 30.4097 26.7914 30.4097 26.4503C30.4097 26.1087 30.1334 25.8324 29.7917 25.8324H28.8262C27.0202 25.8324 25.7017 27.5259 26.132 29.2712C26.2997 30.1698 26.3504 30.4506 26.3585 30.481C26.8064 32.2387 28.3858 33.4663 30.1994 33.4663H33.735L35.3491 40.884C35.4225 41.2212 35.3405 41.5681 35.1246 41.8366C34.5148 42.5931 33.2748 42.2846 33.1216 41.2926C32.7753 39.0537 30.7098 36.9945 26.2148 34.4078C23.1701 32.6558 22.2518 30.128 22.619 27.9516C23.7458 28.467 23.5566 29.0014 24.1426 29.0014C24.6367 29.0014 24.9407 28.4362 24.6439 28.0234C24.1267 27.3025 23.3846 26.8738 22.5911 26.6479C22.5314 26.5902 22.4946 26.5124 22.4119 26.4817C22.2507 26.4222 22.081 26.4356 21.9365 26.5027C21.0521 26.4149 20.135 26.5969 19.3578 27.1547C19.0801 27.3535 19.0168 27.7397 19.2161 28.0172C19.415 28.2941 19.8012 28.3577 20.0783 28.1586C20.4817 27.8689 20.9419 27.7602 21.4044 27.7314C21.3288 28.1915 21.302 28.8196 21.3671 29.5226C16.6019 30.4539 13.7499 29.0959 11.9416 25.0017C11.7925 24.3822 11.6509 23.3732 11.7874 22.9502C11.892 22.6253 11.7134 22.277 11.389 22.1719C11.0639 22.0671 10.7158 22.2457 10.6108 22.5706C10.4117 23.188 10.5127 24.0712 10.6216 24.693C9.45475 24.7808 8.58374 24.152 8.42014 23.7179C8.35784 23.5518 8.2268 23.4205 8.0609 23.3578C7.71123 23.2257 7.55706 23.4312 7.20492 23.5289C5.44206 24.0202 3.69573 21.7087 4.19957 19.5768C4.35044 18.9383 3.58782 18.9383 3.18396 17.4868C2.75266 15.9364 3.37283 14.4021 4.56774 14.0672C4.91723 13.9688 5.10826 13.5908 4.97788 13.2505C4.24749 11.347 5.50865 8.94731 7.23169 8.8789C7.54252 8.86667 7.79584 8.62524 7.8231 8.31573C7.98967 6.42812 9.9457 4.8353 11.562 5.29915C11.83 5.37599 12.1166 5.26395 12.2613 5.02517C13.037 3.74434 14.8226 3.0855 16.2051 3.56108C15.9733 3.91173 15.7662 4.37228 15.7312 4.86984C15.6019 4.8976 15.4618 4.91478 15.347 4.95246C14.434 5.25172 13.8222 5.84661 13.7963 5.87156C13.553 6.11117 13.5501 6.50231 13.7894 6.74556C14.0286 6.98946 14.4199 6.99243 14.6632 6.75299C14.7309 6.68623 16.3437 5.13704 17.9865 6.75299C18.1071 6.87147 18.2634 6.93014 18.4197 6.93014C18.969 6.93014 19.2475 6.25973 18.8533 5.87156C18.214 5.24329 17.5715 4.94701 16.9781 4.83563C17.0654 4.41359 17.4441 3.94214 17.5937 3.79391C17.6026 3.78499 17.5988 3.77127 17.6069 3.76218C19.1594 2.08294 21.6592 2.25067 22.582 3.55876C22.6841 3.70319 22.8432 3.79738 23.0184 3.81672C23.1944 3.83572 23.37 3.77954 23.5014 3.66122C24.9348 2.36634 27.6747 2.77186 28.4777 4.41937C28.6071 4.68559 28.9078 4.82224 29.1935 4.74557C30.8463 4.30205 32.8447 5.39863 33.249 6.97922C33.3252 7.27649 33.6076 7.47413 33.912 7.44075C34.4186 7.38771 34.959 7.47991 35.4769 7.70696C35.7889 7.84428 36.1536 7.70217 36.2911 7.39002C36.428 7.07704 36.2861 6.71267 35.9738 6.57519C35.425 6.33426 34.8501 6.20437 34.2864 6.19132C33.5311 4.34997 31.3607 3.16085 29.3422 3.45532C28.0695 1.59778 25.1499 1.08601 23.1722 2.36238C21.5898 0.865402 18.7326 0.984049 17.047 2.57141C15.2239 1.67627 12.7432 2.33197 11.4554 4.01683C9.37825 3.73128 7.15104 5.41218 6.66637 7.70944C4.53915 8.16734 3.09935 10.7376 3.64665 13.112C1.54289 14.2298 1.18133 17.5357 2.93262 19.62C2.45902 22.6288 5.02134 25.4674 7.58531 24.7058C8.27142 25.5603 9.73336 26.1449 11.0092 25.9372C13.1956 30.4859 16.7354 31.6754 21.5826 30.7401C22.0049 32.2133 23.0595 34.0176 25.5986 35.4789C29.6779 37.8267 31.6213 39.6778 31.9001 41.4813C32.0809 42.6478 33.0656 43.4945 34.242 43.4945C35.7553 43.4945 36.8787 42.0967 36.5574 40.6212L34.9691 33.3231C36.6159 32.9554 37.7394 31.6476 37.9675 30.4417C38.0866 29.3747 38.5029 28.8664 38.0182 27.6247C40.5255 27.4147 42.3102 24.6198 41.7363 22.1282C43.4122 20.3413 43.4372 17.2478 41.6783 15.7553Z" fill="url(#paint4_linear)"/>
<defs>
<linearGradient id="paint0_linear" x1="27.7813" y1="7.724" x2="27.7813" y2="14.7551" gradientUnits="userSpaceOnUse">
<stop stop-color="#C6EBC2"/>
<stop offset="1" stop-color="#ACE8F0"/>
</linearGradient>
<linearGradient id="paint1_linear" x1="12.579" y1="13.1479" x2="12.579" y2="18.6598" gradientUnits="userSpaceOnUse">
<stop stop-color="#C6EBC2"/>
<stop offset="1" stop-color="#ACE8F0"/>
</linearGradient>
<linearGradient id="paint2_linear" x1="29.547" y1="19.0425" x2="29.547" y2="21.6013" gradientUnits="userSpaceOnUse">
<stop stop-color="#C6EBC2"/>
<stop offset="1" stop-color="#ACE8F0"/>
</linearGradient>
<linearGradient id="paint3_linear" x1="20.5825" y1="16.0521" x2="20.5825" y2="19.9454" gradientUnits="userSpaceOnUse">
<stop stop-color="#C6EBC2"/>
<stop offset="1" stop-color="#ACE8F0"/>
</linearGradient>
<linearGradient id="paint4_linear" x1="22.4057" y1="1.30701" x2="22.4057" y2="43.4945" gradientUnits="userSpaceOnUse">
<stop stop-color="#C6EBC2"/>
<stop offset="1" stop-color="#ACE8F0"/>
</linearGradient>
</defs>
</svg>
