<svg width="45" height="45" viewBox="0 0 45 45" fill="none" xmlns="http://www.w3.org/2000/svg">
<path d="M12.3299 1.3075H12.1226C6.15992 1.3075 1.30904 6.1584 1.30904 12.1213V32.6796C1.30904 38.6421 6.15992 43.4933 12.1226 43.4933H12.3299C18.2924 43.4933 23.1436 38.6421 23.1436 32.6796V12.1213C23.1433 6.1584 18.2924 1.3075 12.3299 1.3075ZM21.9076 21.7826H12.1642C11.823 21.7826 11.5462 22.0593 11.5462 22.4006C11.5462 22.7416 11.823 23.0185 12.1642 23.0185H21.9076V32.6796C21.9076 37.9604 17.6111 42.2573 12.3299 42.2573H12.1226C6.84159 42.2573 2.54511 37.9604 2.54511 32.6796V23.0185H9.0018C9.34279 23.0185 9.61975 22.7416 9.61975 22.4006C9.61975 22.0593 9.34279 21.7826 9.0018 21.7826H2.54511V12.1213C2.54511 6.84023 6.84159 2.54341 12.1226 2.54341H12.3299C17.6111 2.54341 21.9076 6.84023 21.9076 12.1213V21.7826Z" fill="url(#paint0_linear)"/>
<path d="M40.7698 20.7208C44.4051 17.0852 44.4058 11.2001 40.7698 7.56382C37.1337 3.92803 31.2488 3.92721 27.6123 7.56382C23.9764 11.1996 23.9762 17.0849 27.6123 20.7208C31.2479 24.3568 37.1329 24.3573 40.7698 20.7208ZM28.0657 8.89101L33.7543 14.5794C33.9952 14.8204 34.3866 14.8204 34.6279 14.5794C34.8694 14.3379 34.8694 13.9466 34.6279 13.7056L28.9395 8.01722C32.1024 5.29682 36.884 5.42572 39.8955 8.43744C42.905 11.447 43.0383 16.2288 40.3163 19.3935L36.5125 15.5902C36.2711 15.3485 35.88 15.3485 35.6383 15.5902C35.3972 15.8313 35.3972 16.2225 35.6383 16.464L39.4421 20.2674C36.2789 22.988 31.4973 22.8581 28.4863 19.8469C25.477 16.8376 25.3437 12.0562 28.0657 8.89101Z" fill="url(#paint1_linear)"/>
<path d="M40.7698 26.6652C37.1337 23.0301 31.2487 23.0291 27.6123 26.6652C23.9767 30.3011 23.9762 36.1863 27.6123 39.8225C31.2479 43.4583 37.133 43.459 40.7698 39.8225C41.0108 39.5812 41.0108 39.1899 40.7698 38.9488C40.5283 38.7076 40.1367 38.7073 39.8955 38.9488C36.8854 41.959 32.1035 42.0904 28.9397 39.3693L32.7435 35.5655L40.3157 27.9934C42.4601 30.4863 42.8876 34.018 41.3481 36.9717C41.1903 37.2741 41.3079 37.6475 41.6106 37.8051C41.9133 37.9627 42.2866 37.8455 42.4444 37.5428C44.298 33.9856 43.6784 29.5747 40.7698 26.6652ZM28.4863 27.5395C31.4953 24.5301 36.2769 24.3974 39.4421 27.1191L28.0657 38.4954C25.3451 35.3321 25.475 30.5505 28.4863 27.5395Z" fill="url(#paint2_linear)"/>
<defs>
<linearGradient id="paint0_linear" x1="12.2263" y1="1.3075" x2="12.2263" y2="43.4933" gradientUnits="userSpaceOnUse">
<stop stop-color="#C6EBC2"/>
<stop offset="1" stop-color="#ACE8F0"/>
</linearGradient>
<linearGradient id="paint1_linear" x1="34.1909" y1="4.83667" x2="34.1909" y2="23.448" gradientUnits="userSpaceOnUse">
<stop stop-color="#C6EBC2"/>
<stop offset="1" stop-color="#ACE8F0"/>
</linearGradient>
<linearGradient id="paint2_linear" x1="34.1908" y1="23.9385" x2="34.1908" y2="42.5496" gradientUnits="userSpaceOnUse">
<stop stop-color="#C6EBC2"/>
<stop offset="1" stop-color="#ACE8F0"/>
</linearGradient>
</defs>
</svg>
