<svg width="42" height="43" viewBox="0 0 42 43" fill="none" xmlns="http://www.w3.org/2000/svg">
<path d="M41.5831 36.525L23.1871 3.89267C22.7431 3.06413 21.8929 2.55153 20.9703 2.55475C20.0618 2.5483 19.2226 3.04478 18.7739 3.85237L0.453446 36.3267C-0.0850208 37.1214 -0.147999 38.1563 0.288127 39.0122C0.713232 39.8988 1.59651 40.4565 2.56165 40.4452H39.382C40.7864 40.442 41.9216 39.275 41.9185 37.8371C41.9169 37.3842 41.802 36.9409 41.5831 36.5492V36.525ZM40.533 38.498C40.2984 38.922 39.8575 39.1831 39.382 39.1815H2.56165C1.8185 39.1783 1.22021 38.5609 1.22336 37.8C1.22493 37.5196 1.30838 37.2455 1.4674 37.015L1.49889 36.965L19.8146 4.48587C20.0476 4.05547 20.4901 3.7895 20.9703 3.7895C21.4505 3.78789 21.8929 4.05386 22.1291 4.48264L40.5361 37.1504C40.7723 37.5679 40.7723 38.0805 40.5361 38.498H40.533Z" fill="url(#paint0_linear)"/>
<path d="M20.9703 11.29C19.2226 11.2933 17.8056 12.7424 17.804 14.5317V25.8202C17.8654 27.611 19.3344 29.0118 21.0852 28.9489C22.7478 28.8877 24.0814 27.5224 24.1397 25.8202V14.5317C24.1381 12.7408 22.7195 11.29 20.9703 11.29ZM22.9289 25.8202C22.8801 26.9292 21.9622 27.7883 20.8789 27.7368C19.865 27.69 19.0526 26.8583 19.0069 25.8202V14.5317C19.0085 13.4226 19.887 12.5264 20.9703 12.5264C22.0503 12.528 22.9273 13.4243 22.9289 14.5317V25.8202Z" fill="url(#paint1_linear)"/>
<path d="M20.9702 29.7983C19.221 29.8016 17.8056 31.2539 17.8071 33.0448C17.8103 34.8341 19.2289 36.2848 20.9781 36.2816C22.7257 36.28 24.1428 34.826 24.1396 33.0367C24.1396 33.0351 24.1396 33.0335 24.1396 33.0319C24.1333 31.2443 22.7163 29.7983 20.9702 29.7983ZM20.9702 35.0501C19.887 35.0485 19.0132 34.149 19.0147 33.04C19.0163 31.9326 19.8964 31.0363 20.9781 31.0395C22.0535 31.0412 22.9257 31.9309 22.9336 33.0319C22.9399 34.1393 22.0676 35.0436 20.986 35.0501C20.9812 35.0501 20.9749 35.0501 20.9702 35.0501Z" fill="url(#paint2_linear)"/>
<defs>
<linearGradient id="paint0_linear" x1="20.9594" y1="2.55469" x2="20.9594" y2="40.4454" gradientUnits="userSpaceOnUse">
<stop stop-color="#EACD83"/>
<stop offset="0.401042" stop-color="#DE9D5D"/>
</linearGradient>
<linearGradient id="paint1_linear" x1="20.9718" y1="11.29" x2="20.9718" y2="28.951" gradientUnits="userSpaceOnUse">
<stop stop-color="#EACD83"/>
<stop offset="0.401042" stop-color="#DE9D5D"/>
</linearGradient>
<linearGradient id="paint2_linear" x1="20.9734" y1="29.7983" x2="20.9734" y2="36.2816" gradientUnits="userSpaceOnUse">
<stop stop-color="#EACD83"/>
<stop offset="0.401042" stop-color="#DE9D5D"/>
</linearGradient>
</defs>
</svg>
