<svg width="42" height="42" viewBox="0 0 42 42" fill="none" xmlns="http://www.w3.org/2000/svg">
<path d="M33.9296 3.06857H31.0563C30.7378 3.06857 30.4795 3.32691 30.4795 3.64533C30.4795 3.9639 30.7378 4.22208 31.0563 4.22208H31.4127V36.0707H9.8804V4.22208H12.2809V5.53227C12.2809 6.53666 13.0979 7.35358 14.1023 7.35358H16.8291C17.1018 8.85864 18.4219 10.0034 20.0039 10.0034H21.289C22.8707 10.0034 24.1909 8.85864 24.4636 7.35358H27.1904C28.195 7.35358 29.0122 6.53651 29.0122 5.53227V3.04315C29.0122 2.03875 28.195 1.22168 27.1906 1.22168H14.1023C13.0979 1.22168 12.2809 2.03875 12.2809 3.04315V3.06857H7.36325C6.09481 3.06857 5.06299 4.10069 5.06299 5.36867V28.5225C5.06299 28.8412 5.32117 29.0992 5.63975 29.0992C5.95801 29.0992 6.21651 28.8412 6.21651 28.5225V5.36867C6.21651 4.73661 6.73134 4.22208 7.36325 4.22208H8.72658V36.647C8.72658 36.9657 8.98507 37.2238 9.30334 37.2238H31.9895C32.3082 37.2238 32.5662 36.9657 32.5662 36.647V4.22208H33.9296C34.562 4.22208 35.0762 4.73661 35.0762 5.36867V38.2961C35.0762 38.9286 34.562 39.4431 33.9296 39.4431H7.36325C6.73134 39.4431 6.21651 38.9286 6.21651 38.2961V31.2411C6.21651 30.9229 5.95801 30.6644 5.63975 30.6644C5.32117 30.6644 5.06299 30.9229 5.06299 31.2411V38.2961C5.06299 39.5647 6.09481 40.5966 7.36325 40.5966H33.9296C35.198 40.5966 36.2297 39.5647 36.2297 38.2961V5.36867C36.2297 4.10069 35.198 3.06857 33.9296 3.06857ZM13.4345 3.04315C13.4345 2.67482 13.7339 2.37535 14.1023 2.37535H27.1906C27.5589 2.37535 27.8584 2.67482 27.8584 3.04315V5.53227C27.8584 5.9006 27.5589 6.20007 27.1906 6.20007H23.9389C23.6202 6.20007 23.3621 6.45841 23.3621 6.77682C23.3621 7.92002 22.432 8.84986 21.289 8.84986H20.0039C18.8608 8.84986 17.9308 7.92002 17.9308 6.77682C17.9308 6.45841 17.6727 6.20007 17.3541 6.20007H14.1023C13.7339 6.20007 13.4345 5.9006 13.4345 5.53227V3.04315Z" fill="url(#paint0_linear)"/>
<path d="M27.9936 17.0035H24.9439L22.9946 11.6808C22.8011 11.1517 22.0336 11.1875 21.8942 11.7372L19.8005 19.9808L17.7793 14.1006C17.6177 13.6306 16.9744 13.5722 16.7308 14.006L15.0492 17.0038H13.2995C12.9807 17.0038 12.7228 17.2618 12.7228 17.5806C12.7228 17.899 12.9807 18.1573 13.2995 18.1573H15.387C15.5958 18.1573 15.788 18.0446 15.8903 17.8626L17.1068 15.6932L19.3381 22.1839C19.5239 22.7244 20.3021 22.6925 20.4426 22.1384L22.5532 13.8293L23.9993 17.7787C24.0823 18.0059 24.2986 18.157 24.5409 18.157H27.9935C28.3122 18.157 28.5702 17.899 28.5702 17.5803C28.5702 17.2618 28.3122 17.0035 27.9936 17.0035Z" fill="url(#paint1_linear)"/>
<path d="M27.9937 26.5151H13.2995C12.981 26.5151 12.7228 26.7732 12.7228 27.0919C12.7228 27.4105 12.981 27.6687 13.2995 27.6687H27.9937C28.3122 27.6687 28.5704 27.4105 28.5704 27.0919C28.5704 26.7732 28.3122 26.5151 27.9937 26.5151Z" fill="url(#paint2_linear)"/>
<path d="M27.9937 31.5967H13.2995C12.981 31.5967 12.7228 31.855 12.7228 32.1735C12.7228 32.492 12.981 32.7502 13.2995 32.7502H27.9937C28.3122 32.7502 28.5704 32.492 28.5704 32.1735C28.5704 31.855 28.3122 31.5967 27.9937 31.5967Z" fill="url(#paint3_linear)"/>
<defs>
<linearGradient id="paint0_linear" x1="20.6463" y1="1.22168" x2="20.6463" y2="40.5966" gradientUnits="userSpaceOnUse">
<stop stop-color="#EACD83"/>
<stop offset="0.401042" stop-color="#DE9D5D"/>
</linearGradient>
<linearGradient id="paint1_linear" x1="20.6465" y1="11.3037" x2="20.6465" y2="22.5722" gradientUnits="userSpaceOnUse">
<stop stop-color="#EACD83"/>
<stop offset="0.401042" stop-color="#DE9D5D"/>
</linearGradient>
<linearGradient id="paint2_linear" x1="20.6466" y1="26.5151" x2="20.6466" y2="27.6687" gradientUnits="userSpaceOnUse">
<stop stop-color="#EACD83"/>
<stop offset="0.401042" stop-color="#DE9D5D"/>
</linearGradient>
<linearGradient id="paint3_linear" x1="20.6466" y1="31.5967" x2="20.6466" y2="32.7502" gradientUnits="userSpaceOnUse">
<stop stop-color="#EACD83"/>
<stop offset="0.401042" stop-color="#DE9D5D"/>
</linearGradient>
</defs>
</svg>
