<svg viewBox="0 0 45 45" fill="none" xmlns="http://www.w3.org/2000/svg">
<path d="M34.8242 20.2827H15.5181C15.1537 20.2827 14.8585 20.578 14.8585 20.9423C14.8585 21.3066 15.1538 21.602 15.5181 21.602H34.8242C35.1885 21.602 35.4838 21.3066 35.4838 20.9423C35.4838 20.578 35.1885 20.2827 34.8242 20.2827Z" fill="url(#paint0_linear)"/>
<path d="M12.4253 20.2827H10.1756C9.8113 20.2827 9.51599 20.578 9.51599 20.9423C9.51599 21.3066 9.8113 21.602 10.1756 21.602H12.4253C12.7896 21.602 13.0849 21.3066 13.0849 20.9423C13.0849 20.578 12.7896 20.2827 12.4253 20.2827Z" fill="url(#paint1_linear)"/>
<path d="M34.8242 26.6968H10.1756C9.8113 26.6968 9.51599 26.9921 9.51599 27.3564C9.51599 27.7207 9.8113 28.016 10.1756 28.016H34.8242C35.1885 28.016 35.4838 27.7207 35.4838 27.3564C35.4838 26.9921 35.1885 26.6968 34.8242 26.6968Z" fill="url(#paint2_linear)"/>
<path d="M34.8243 33.9355H31.2388C30.8745 33.9355 30.5792 34.2309 30.5792 34.5952C30.5792 34.9595 30.8745 35.2548 31.2388 35.2548H34.8243C35.1886 35.2548 35.4839 34.9595 35.4839 34.5952C35.4839 34.2309 35.1886 33.9355 34.8243 33.9355Z" fill="url(#paint3_linear)"/>
<path d="M28.1386 33.9355H10.1756C9.8113 33.9355 9.51599 34.2309 9.51599 34.5952C9.51599 34.9595 9.8113 35.2548 10.1756 35.2548H28.1386C28.5029 35.2548 28.7982 34.9595 28.7982 34.5952C28.7982 34.2309 28.5029 33.9355 28.1386 33.9355Z" fill="url(#paint4_linear)"/>
<path d="M39.6853 9.94597C39.6837 9.93006 39.681 9.91441 39.6782 9.89886C39.6773 9.89323 39.6767 9.88752 39.6757 9.88198C39.6719 9.86326 39.6671 9.84489 39.6618 9.82679C39.6611 9.82441 39.6607 9.82204 39.66 9.81967C39.6543 9.80121 39.6477 9.78319 39.6405 9.76553C39.6397 9.76342 39.639 9.76113 39.6382 9.75902C39.6312 9.74232 39.6234 9.72624 39.6151 9.71033C39.6135 9.70708 39.6121 9.70374 39.6105 9.70058C39.6028 9.68625 39.5942 9.67245 39.5855 9.65883C39.5826 9.65426 39.5802 9.6496 39.5772 9.64512C39.5686 9.63237 39.5592 9.62024 39.5498 9.60812C39.5461 9.60319 39.5426 9.59801 39.5387 9.59326C39.5265 9.57841 39.5134 9.56426 39.5 9.55055C39.4984 9.54896 39.4971 9.54712 39.4955 9.54554L30.1433 0.193184C30.1419 0.191865 30.1405 0.190811 30.1392 0.189492C30.1251 0.175693 30.1106 0.162422 30.0954 0.149854C30.0913 0.146426 30.0869 0.143613 30.0827 0.140273C30.0699 0.130254 30.057 0.120322 30.0435 0.11127C30.0399 0.108809 30.036 0.106875 30.0323 0.104502C30.0178 0.0951855 30.0032 0.0861328 29.988 0.077959C29.9853 0.0765527 29.9825 0.0754102 29.9798 0.0740039C29.9634 0.0654785 29.9468 0.0573926 29.9296 0.0502734C29.9277 0.0494824 29.9258 0.0489551 29.924 0.048252C29.9059 0.040957 29.8877 0.0342773 29.8689 0.0285645C29.8667 0.0278613 29.8644 0.0275098 29.8622 0.0268066C29.8439 0.0214453 29.8254 0.0166113 29.8065 0.012832C29.8013 0.0117773 29.7958 0.0113379 29.7905 0.0103711C29.7746 0.00755859 29.7588 0.00483398 29.7426 0.00325195C29.7208 0.00114258 29.6989 0 29.6768 0H7.2452C6.17882 0 5.31134 0.867568 5.31134 1.93386V43.0661C5.31134 44.1324 6.17891 45 7.24529 45H37.7548C38.8211 45 39.6887 44.1324 39.6887 43.0661V10.0118C39.6885 9.98974 39.6874 9.96776 39.6853 9.94597ZM30.3363 2.25202L37.4365 9.35218H30.827C30.5564 9.35218 30.3363 9.1321 30.3363 8.86157V2.25202ZM38.3694 43.0661C38.3694 43.405 38.0936 43.6808 37.7547 43.6808H7.2452C6.90629 43.6808 6.63049 43.405 6.63049 43.0661V1.93386C6.63049 1.59495 6.90629 1.31924 7.2452 1.31924H29.0172V8.86157C29.0172 9.85948 29.829 10.6713 30.827 10.6713H38.3694V43.0661Z" fill="url(#paint5_linear)"/>
<path d="M21.2956 8.43101H17.9362V5.07165C17.9362 4.58008 17.5363 4.18018 17.0448 4.18018H14.6584C14.1668 4.18018 13.7669 4.58008 13.7669 5.07165V8.43101H10.4076C9.91602 8.43101 9.51611 8.83091 9.51611 9.32248V11.7089C9.51603 12.2005 9.91593 12.6004 10.4076 12.6004H13.7669V15.9597C13.7669 16.4513 14.1668 16.8512 14.6584 16.8512H17.0448C17.5363 16.8512 17.9362 16.4513 17.9362 15.9597V12.6004H21.2956C21.7871 12.6004 22.187 12.2005 22.187 11.7089V9.32248C22.187 8.83091 21.7871 8.43101 21.2956 8.43101ZM20.8681 11.2812H17.2768C16.9125 11.2812 16.6171 11.5765 16.6171 11.9408V15.532H15.0862V11.9408C15.0862 11.5765 14.7909 11.2812 14.4266 11.2812H10.8353V9.75024H14.4266C14.7909 9.75024 15.0862 9.45493 15.0862 9.09062V5.49933H16.6171V9.09062C16.6171 9.45493 16.9125 9.75024 17.2768 9.75024H20.8681V11.2812Z" fill="url(#paint6_linear)"/>
<defs>
<linearGradient id="paint0_linear" x1="25.1712" y1="20.2827" x2="25.1712" y2="21.602" gradientUnits="userSpaceOnUse">
<stop offset="0.552083" stop-color="#EACD83"/>
<stop offset="1" stop-color="#DE9D5D"/>
</linearGradient>
<linearGradient id="paint1_linear" x1="11.3004" y1="20.2827" x2="11.3004" y2="21.602" gradientUnits="userSpaceOnUse">
<stop offset="0.552083" stop-color="#EACD83"/>
<stop offset="1" stop-color="#DE9D5D"/>
</linearGradient>
<linearGradient id="paint2_linear" x1="22.4999" y1="26.6968" x2="22.4999" y2="28.016" gradientUnits="userSpaceOnUse">
<stop offset="0.552083" stop-color="#EACD83"/>
<stop offset="1" stop-color="#DE9D5D"/>
</linearGradient>
<linearGradient id="paint3_linear" x1="33.0315" y1="33.9355" x2="33.0315" y2="35.2548" gradientUnits="userSpaceOnUse">
<stop offset="0.552083" stop-color="#EACD83"/>
<stop offset="1" stop-color="#DE9D5D"/>
</linearGradient>
<linearGradient id="paint4_linear" x1="19.1571" y1="33.9355" x2="19.1571" y2="35.2548" gradientUnits="userSpaceOnUse">
<stop offset="0.552083" stop-color="#EACD83"/>
<stop offset="1" stop-color="#DE9D5D"/>
</linearGradient>
<linearGradient id="paint5_linear" x1="22.5" y1="0" x2="22.5" y2="45" gradientUnits="userSpaceOnUse">
<stop offset="0.552083" stop-color="#EACD83"/>
<stop offset="1" stop-color="#DE9D5D"/>
</linearGradient>
<linearGradient id="paint6_linear" x1="15.8516" y1="4.18018" x2="15.8516" y2="16.8512" gradientUnits="userSpaceOnUse">
<stop offset="0.552083" stop-color="#EACD83"/>
<stop offset="1" stop-color="#DE9D5D"/>
</linearGradient>
</defs>
</svg>
