<svg width="45" height="39" viewBox="0 0 45 39" fill="none" xmlns="http://www.w3.org/2000/svg">
<path d="M42.75 4.51514H2.25C1.0074 4.51514 0 5.38143 0 6.45014V32.2501C0 33.3187 1.00731 34.1851 2.25 34.1851H42.75C43.9926 34.1851 45 33.3188 45 32.2501V6.45014C45 5.3815 43.9927 4.51514 42.75 4.51514ZM43.5 32.2502C43.5 32.6064 43.1642 32.8952 42.75 32.8952H2.25C1.83577 32.8952 1.50003 32.6064 1.50003 32.2502V6.45014C1.50003 6.0939 1.83577 5.80516 2.25 5.80516H42.75C43.1642 5.80516 43.5 6.0939 43.5 6.45014V32.2502Z" fill="url(#paint0_linear)"/>
<path d="M41.3153 7.09771C41.1171 7.08281 40.9201 7.13625 40.7678 7.24631L23.4652 19.7463C22.9072 20.1497 22.0927 20.1497 21.5347 19.7463L4.23228 7.24623C4.02705 7.09808 3.74545 7.0553 3.49365 7.13406C3.24184 7.21282 3.05797 7.40118 3.01139 7.62817C2.96481 7.85515 3.06254 8.08622 3.26777 8.23437L20.5703 20.7338C21.6854 21.5413 23.3146 21.5413 24.4298 20.7338L41.7322 8.23444C41.8846 8.12446 41.9799 7.96694 41.9972 7.7965C42.0145 7.62605 41.9524 7.45666 41.8244 7.32567C41.6966 7.19453 41.5135 7.1126 41.3153 7.09771Z" fill="url(#paint1_linear)"/>
<path d="M14.425 20.6449C14.1595 20.594 13.8828 20.6706 13.7017 20.8452L3.20169 30.5202C3.01167 30.6876 2.94189 30.9303 3.0194 31.1545C3.09692 31.3788 3.30953 31.5493 3.57496 31.6003C3.84048 31.6512 4.11716 31.5746 4.29821 31.4L14.7982 21.7249C14.9883 21.5576 15.058 21.3148 14.9805 21.0906C14.903 20.8664 14.6905 20.6958 14.425 20.6449Z" fill="url(#paint2_linear)"/>
<path d="M31.2983 20.8452C31.1173 20.6706 30.8406 20.594 30.575 20.6449C30.3095 20.6958 30.097 20.8664 30.0195 21.0906C29.942 21.3149 30.0117 21.5576 30.2018 21.7249L40.7018 31.3999C40.9866 31.6507 41.452 31.6601 41.7501 31.421C42.0481 31.1818 42.0696 30.7818 41.7983 30.5201L31.2983 20.8452Z" fill="url(#paint3_linear)"/>
<defs>
<linearGradient id="paint0_linear" x1="22.5" y1="4.51514" x2="22.5" y2="34.1851" gradientUnits="userSpaceOnUse">
<stop offset="0.25" stop-color="#EACD83"/>
<stop offset="1" stop-color="#DE9D5D"/>
</linearGradient>
<linearGradient id="paint1_linear" x1="22.5" y1="7.09521" x2="22.5" y2="21.3394" gradientUnits="userSpaceOnUse">
<stop offset="0.25" stop-color="#EACD83"/>
<stop offset="1" stop-color="#DE9D5D"/>
</linearGradient>
<linearGradient id="paint2_linear" x1="8.99997" y1="20.6294" x2="8.99997" y2="31.6158" gradientUnits="userSpaceOnUse">
<stop offset="0.25" stop-color="#EACD83"/>
<stop offset="1" stop-color="#DE9D5D"/>
</linearGradient>
<linearGradient id="paint3_linear" x1="35.9884" y1="20.6294" x2="35.9884" y2="31.5944" gradientUnits="userSpaceOnUse">
<stop offset="0.25" stop-color="#EACD83"/>
<stop offset="1" stop-color="#DE9D5D"/>
</linearGradient>
</defs>
</svg>
