<svg viewBox="0 0 45 45" fill="none" xmlns="http://www.w3.org/2000/svg">
<path d="M22.5 0C13.753 0.00999765 6.66466 7.09833 6.65466 15.8453C6.65466 24.3392 21.2799 43.4162 21.9024 44.2236L22.5 45L23.0976 44.2236C23.7201 43.4162 38.3453 24.3392 38.3453 15.8453C38.3353 7.09833 31.247 0.00999765 22.5 0ZM22.5 42.5115C19.715 38.7833 8.16374 22.9033 8.16374 15.8453C8.16374 7.92767 14.5823 1.50908 22.5 1.50908C30.4177 1.50908 36.8363 7.92767 36.8363 15.8453C36.8363 22.9018 25.285 38.7833 22.5 42.5115Z" fill="url(#paint0_linear)"/>
<path d="M22.5 10.5635C19.5829 10.5635 17.2182 12.9282 17.2182 15.8453C17.2182 18.7623 19.5829 21.127 22.5 21.127C25.417 21.127 27.7818 18.7623 27.7818 15.8453C27.7785 12.9296 25.4156 10.5668 22.5 10.5635ZM22.5 19.618C20.4164 19.618 18.7273 17.9288 18.7273 15.8453C18.7273 13.7617 20.4164 12.0726 22.5 12.0726C24.5835 12.0726 26.2727 13.7617 26.2727 15.8453C26.2702 17.9278 24.5825 19.6155 22.5 19.618Z" fill="url(#paint1_linear)"/>
<defs>
<linearGradient id="paint0_linear" x1="22.5" y1="45" x2="22.5" y2="-0.876775" gradientUnits="userSpaceOnUse">
<stop stop-color="#EACD83"/>
<stop offset="1" stop-color="#DE9D5D"/>
</linearGradient>
<linearGradient id="paint1_linear" x1="22.5" y1="44.9629" x2="22.5" y2="-0.915337" gradientUnits="userSpaceOnUse">
<stop offset="0.248847" stop-color="#EACD83"/>
<stop offset="1" stop-color="#DE9D5D"/>
</linearGradient>
</defs>
</svg>
