<svg width="40" height="40" viewBox="0 0 40 40" fill="none" xmlns="http://www.w3.org/2000/svg">
<path d="M24.4733 24.6335V21.3718C26.8219 19.8792 28.3835 17.2543 28.3835 14.2719V3.7146C28.3835 1.66626 26.7169 0 24.6689 0H23.3279V1.1731H24.6689C26.0703 1.1731 27.2104 2.31323 27.2104 3.7146V8.60229H17.6306V9.77509H27.2104V14.2719C27.2104 18.2605 23.9655 21.5054 19.9768 21.5054C17.5681 21.5054 15.3247 20.3116 13.9755 18.3118L13.0029 18.9676C13.6646 19.9484 14.512 20.7614 15.4803 21.3748V24.6335H10.5927C6.81976 24.6335 3.75 27.7029 3.75 31.4758V34.584L4.9231 34.5844V31.4758C4.9231 28.3496 7.46643 25.8066 10.5927 25.8066H11.8048V30.1471C9.60144 30.4355 7.89459 32.3236 7.89459 34.6042V39.1006H10.5145V37.9276H9.06769V34.6042C9.06769 32.7716 10.5585 31.2805 12.3914 31.2805C14.2239 31.2805 15.7147 32.7716 15.7147 34.6042V37.9276H14.2682V39.1006H16.8878V34.6042C16.8878 32.3236 15.181 30.4355 12.9779 30.1471V25.8066H15.7416L19.9768 32.5827L24.212 25.8066H27.0541V31.3333C25.5002 31.6113 24.317 32.9718 24.317 34.6042C24.317 36.4368 25.8078 37.9276 27.6404 37.9276C29.4733 37.9276 30.9641 36.4368 30.9641 34.6042C30.9641 32.9718 29.7809 31.6113 28.2269 31.3333V25.8066H29.361C30.3009 25.8066 31.2317 26.041 32.0526 26.4847L32.6105 25.4529C31.6187 24.9167 30.495 24.6335 29.361 24.6335H24.4733ZM23.3005 25.0516L19.9768 30.3696L16.6531 25.0516V21.9937C17.6877 22.439 18.8156 22.6785 19.9768 22.6785C21.1566 22.6785 22.2803 22.4338 23.3005 21.9928V25.0516ZM29.791 34.6042C29.791 35.7901 28.8263 36.7548 27.6404 36.7548C26.4548 36.7548 25.4901 35.7901 25.4901 34.6042C25.4901 33.4183 26.4548 32.4536 27.6404 32.4536C28.8263 32.4536 29.791 33.4183 29.791 34.6042Z" fill="url(#paint0_linear)"/>
<path d="M36.2036 31.4758C36.2036 29.4067 35.282 27.471 33.6749 26.1642L32.9349 27.0746C34.2667 28.1573 35.0305 29.7617 35.0305 31.4758V40H36.2036V31.4758Z" fill="url(#paint1_linear)"/>
<path d="M3.75 35.7584H4.9231V40H3.75V35.7584Z" fill="url(#paint2_linear)"/>
<path d="M13.4387 17.3709C12.9773 16.3992 12.7432 15.3564 12.7432 14.2719V9.77509H16.4578V8.60229H12.7432V3.7146C12.7432 2.31323 13.8834 1.1731 15.2847 1.1731H22.1548V0H15.2847C13.2364 0 11.5701 1.66626 11.5701 3.7146V14.2719C11.5701 15.5319 11.8423 16.7441 12.3792 17.8741L13.4387 17.3709Z" fill="url(#paint3_linear)"/>
<path d="M17.3785 19.7467L17.883 18.6877C17.283 18.4021 16.7548 18.0032 16.3129 17.5027L15.4337 18.2794C15.9808 18.8989 16.6351 19.3927 17.3785 19.7467Z" fill="url(#paint4_linear)"/>
<path d="M14.176 16.0294C14.3018 16.4432 14.4727 16.8445 14.6841 17.2226L15.7077 16.6498C15.5374 16.3452 15.3998 16.0217 15.2985 15.6885L14.176 16.0294Z" fill="url(#paint5_linear)"/>
<path d="M27.0541 34.0176H28.2269V35.1907H27.0541V34.0176Z" fill="url(#paint6_linear)"/>
<path d="M20.5634 7.23358V5.47424H22.3227V4.30115H20.5634V2.5415H19.3903V4.30115H17.6306V5.47424H19.3903V7.23358H20.5634Z" fill="url(#paint7_linear)"/>
<defs>
<linearGradient id="paint0_linear" x1="18.1802" y1="0" x2="18.1802" y2="39.1006" gradientUnits="userSpaceOnUse">
<stop offset="0.00520833" stop-color="#BCEAC8"/>
<stop offset="0.572917" stop-color="#76E7ED"/>
</linearGradient>
<linearGradient id="paint1_linear" x1="34.5692" y1="26.1642" x2="34.5692" y2="40" gradientUnits="userSpaceOnUse">
<stop offset="0.00520833" stop-color="#BCEAC8"/>
<stop offset="0.572917" stop-color="#76E7ED"/>
</linearGradient>
<linearGradient id="paint2_linear" x1="4.33655" y1="35.7584" x2="4.33655" y2="40" gradientUnits="userSpaceOnUse">
<stop offset="0.00520833" stop-color="#BCEAC8"/>
<stop offset="0.572917" stop-color="#76E7ED"/>
</linearGradient>
<linearGradient id="paint3_linear" x1="16.8625" y1="0" x2="16.8625" y2="17.8741" gradientUnits="userSpaceOnUse">
<stop offset="0.00520833" stop-color="#BCEAC8"/>
<stop offset="0.572917" stop-color="#76E7ED"/>
</linearGradient>
<linearGradient id="paint4_linear" x1="16.6583" y1="17.5027" x2="16.6583" y2="19.7467" gradientUnits="userSpaceOnUse">
<stop offset="0.00520833" stop-color="#BCEAC8"/>
<stop offset="0.572917" stop-color="#76E7ED"/>
</linearGradient>
<linearGradient id="paint5_linear" x1="14.9419" y1="15.6885" x2="14.9419" y2="17.2226" gradientUnits="userSpaceOnUse">
<stop offset="0.00520833" stop-color="#BCEAC8"/>
<stop offset="0.572917" stop-color="#76E7ED"/>
</linearGradient>
<linearGradient id="paint6_linear" x1="27.6405" y1="34.0176" x2="27.6405" y2="35.1907" gradientUnits="userSpaceOnUse">
<stop offset="0.00520833" stop-color="#BCEAC8"/>
<stop offset="0.572917" stop-color="#76E7ED"/>
</linearGradient>
<linearGradient id="paint7_linear" x1="19.9767" y1="2.5415" x2="19.9767" y2="7.23358" gradientUnits="userSpaceOnUse">
<stop offset="0.00520833" stop-color="#BCEAC8"/>
<stop offset="0.572917" stop-color="#76E7ED"/>
</linearGradient>
</defs>
</svg>
