<svg width="45" height="45" viewBox="0 0 45 45" fill="none" xmlns="http://www.w3.org/2000/svg">
<g clip-path="url(#clip0)">
<path d="M19.1458 23.0685C18.856 23.0685 18.6002 22.879 18.5158 22.6016L16.5149 16.029H10.5218C10.1579 16.029 9.86299 15.7341 9.86299 15.3702C9.86299 15.0066 10.1579 14.7117 10.5218 14.7117H17.0027C17.2929 14.7117 17.5486 14.9012 17.6331 15.1786L19.1458 20.1482L21.3554 12.8904C21.4395 12.613 21.6956 12.4235 21.9854 12.4235C22.2752 12.4235 22.5309 12.613 22.6154 12.8904L23.5716 16.0314H29.3641C29.7277 16.0314 30.0226 16.3264 30.0226 16.6903C30.0226 17.0539 29.7277 17.3488 29.3641 17.3488H23.0837C22.7939 17.3488 22.5378 17.1593 22.4537 16.8822L21.9854 15.3438L19.7758 22.6016C19.6917 22.879 19.4359 23.0685 19.1458 23.0685Z" fill="url(#paint0_linear)"/>
<path d="M43.5227 10.5538C43.3439 10.2365 42.9422 10.1246 42.6253 10.3035C42.3088 10.482 42.1965 10.8837 42.3754 11.2006C43.1702 12.6103 43.5921 14.2112 43.5948 15.8303C43.6031 20.1469 41.1226 24.949 36.223 30.1029C32.2339 34.299 27.7577 37.5036 26.0184 38.6863C25.7276 38.8844 25.3517 38.8844 25.0605 38.6863C23.5187 37.6378 19.7706 34.962 16.1407 31.4062H22.2858V34.0752C22.2858 34.9225 22.9752 35.6119 23.8225 35.6119H25.2573C26.1049 35.6119 26.7943 34.9225 26.7943 34.0752V34.0196C26.8661 34.0299 26.9392 34.0371 27.0137 34.0371H28.4485C29.2958 34.0371 29.9852 33.3477 29.9852 32.5003V24.9836C29.9852 24.1363 29.2958 23.4469 28.4485 23.4469H27.0137C26.9392 23.4469 26.8661 23.4541 26.7943 23.4648V23.4088C26.7943 22.5615 26.1049 21.8721 25.2573 21.8721H23.8225C22.9752 21.8721 22.2858 22.5615 22.2858 23.4088V26.0129H20.2094C19.8455 26.0129 19.5505 26.3078 19.5505 26.6714C19.5505 27.0353 19.8455 27.3302 20.2094 27.3302H22.2858V30.0892H7.61182V27.3302H17.2304C17.5943 27.3302 17.8892 27.0353 17.8892 26.6714C17.8892 26.3078 17.5943 26.0129 17.2304 26.0129H11.4279C8.80521 22.385 7.47827 18.9604 7.4841 15.8306C7.49372 10.5874 11.765 6.3271 17.0082 6.3271H17.0216C19.9186 6.33087 22.6219 7.63207 24.4384 9.89663C24.7076 10.2324 25.1089 10.4247 25.5395 10.4247C25.97 10.4247 26.3713 10.2321 26.6405 9.89663C28.457 7.63207 31.1604 6.33122 34.0573 6.3271H34.0707C36.5052 6.3271 38.8254 7.25407 40.6062 8.93841C40.8702 9.18835 41.2874 9.17668 41.5373 8.91266C41.7872 8.64831 41.7756 8.23151 41.5112 7.98157C39.4849 6.06445 36.8434 5.00977 34.0707 5.00977C34.0659 5.00977 34.0604 5.00977 34.0553 5.00977C30.7576 5.01423 27.6804 6.49498 25.6129 9.07265C25.5755 9.119 25.5031 9.119 25.466 9.07265C23.3985 6.49533 20.3213 5.01457 17.0237 5.00977C17.0182 5.00977 17.0137 5.00977 17.0082 5.00977C11.0402 5.00977 6.17776 9.85989 6.16677 15.8282C6.16094 19.0132 7.389 22.4348 9.81904 26.0129H7.61182V23.4085C7.61182 22.5611 6.92243 21.8717 6.0751 21.8717H4.64001C3.79269 21.8717 3.1033 22.5611 3.1033 23.4085V23.4644C3.03154 23.4541 2.95842 23.4469 2.88392 23.4469H1.44882C0.601502 23.4469 -0.0878906 24.1363 -0.0878906 24.9836V32.5C-0.0878906 33.3473 0.601502 34.0367 1.44882 34.0367H2.88392C2.95842 34.0367 3.03154 34.0295 3.1033 34.0192V34.0752C3.1033 34.9225 3.79269 35.6119 4.64001 35.6119H6.0751C6.92243 35.6119 7.61182 34.9225 7.61182 34.0752V31.4062H14.2822C18.2627 35.5034 22.614 38.6156 24.3196 39.7757C24.6901 40.0277 25.1148 40.1537 25.5391 40.1537C25.9638 40.1537 26.3885 40.0277 26.759 39.7757C28.5336 38.5689 33.1008 35.2988 37.1774 31.0103C42.3184 25.6026 44.9208 20.4943 44.9122 15.8279C44.9087 13.9832 44.4281 12.1595 43.5227 10.5538ZM27.0137 24.7642H28.4488C28.5696 24.7642 28.6682 24.8628 28.6682 24.9836V32.5C28.6682 32.6212 28.5696 32.7197 28.4488 32.7197H27.0137C26.8929 32.7197 26.7943 32.6212 26.7943 32.5V24.9836C26.7943 24.8628 26.8929 24.7642 27.0137 24.7642ZM23.6031 23.4085C23.6031 23.2876 23.7013 23.1891 23.8225 23.1891H25.2573C25.3785 23.1891 25.477 23.2876 25.477 23.4085V34.0752C25.477 34.196 25.3785 34.2946 25.2573 34.2946H23.8225C23.7013 34.2946 23.6031 34.196 23.6031 34.0752V23.4085ZM6.29449 34.0752C6.29449 34.1964 6.19595 34.2949 6.0751 34.2949H4.64001C4.51916 34.2949 4.42063 34.1964 4.42063 34.0752V28.8673C4.42063 28.5037 4.12572 28.2088 3.76179 28.2088C3.39821 28.2088 3.1033 28.5037 3.1033 28.8673V32.5C3.1033 32.6212 3.00477 32.7197 2.88357 32.7197H1.44882C1.32797 32.7197 1.22944 32.6212 1.22944 32.5V24.9836C1.22944 24.8628 1.32797 24.7642 1.44882 24.7642H2.88392C3.00477 24.7642 3.1033 24.8628 3.1033 24.9836V25.7928C3.1033 26.1568 3.39821 26.4513 3.76214 26.4513C4.12572 26.4513 4.42063 26.1568 4.42063 25.7928V23.4085C4.42063 23.2876 4.51916 23.1891 4.64036 23.1891H6.0751C6.19595 23.1891 6.29449 23.2876 6.29449 23.4085V34.0752Z" fill="url(#paint1_linear)"/>
</g>
<defs>
<linearGradient id="paint0_linear" x1="19.9428" y1="12.4235" x2="19.9428" y2="23.0685" gradientUnits="userSpaceOnUse">
<stop stop-color="#C6EBC2"/>
<stop offset="1" stop-color="#ACE8F0"/>
</linearGradient>
<linearGradient id="paint1_linear" x1="22.4122" y1="5.00977" x2="22.4122" y2="40.1537" gradientUnits="userSpaceOnUse">
<stop stop-color="#C6EBC2"/>
<stop offset="1" stop-color="#ACE8F0"/>
</linearGradient>
<clipPath id="clip0">
<rect width="45" height="45" fill="white"/>
</clipPath>
</defs>
</svg>
