<svg width="45" height="45" viewBox="0 0 45 45" fill="none" xmlns="http://www.w3.org/2000/svg">
<g clip-path="url(#clip0)">
<path d="M25.4553 34.0004C23.8259 35.6297 21.1747 35.6297 19.5455 34.0004C19.212 33.6669 18.6713 33.6669 18.3378 34.0004C18.0043 34.3338 18.0043 34.8745 18.3378 35.208C19.4855 36.3556 20.9929 36.9294 22.5004 36.9294C24.0079 36.9294 25.5154 36.3556 26.663 35.208C26.9966 34.8745 26.9966 34.3338 26.663 34.0004C26.3295 33.6669 25.7887 33.6669 25.4553 34.0004Z" fill="url(#paint0_linear)"/>
<path d="M41.8257 42.4725C39.8252 40.2573 39.7406 34.6128 39.9773 28.7725C40.8487 27.9541 41.3946 26.7929 41.3946 25.5059C41.3946 24.3758 40.9734 23.3428 40.2809 22.5534C40.5719 16.5966 40.7263 12.613 38.8368 8.93474C37.5477 6.42492 35.4619 4.32789 32.6374 2.70193C29.3454 0.806966 25.5903 -0.123221 21.7775 0.013094C18.4285 0.132436 15.3105 1.69275 13.1604 4.3107C10.3842 4.47584 7.85864 5.98673 6.49987 8.32191C6.3832 8.52238 6.27037 8.72851 6.16447 8.93463C4.27389 12.6149 4.42814 16.5982 4.71913 22.5544C4.02709 23.3437 3.6063 24.3762 3.6063 25.5059C3.6063 26.7924 4.15177 27.9533 5.02271 28.7717C5.25948 34.6125 5.17483 40.2574 3.1744 42.4726C2.98525 42.6821 2.9118 42.9716 2.9782 43.2459C3.0446 43.5202 3.24229 43.7441 3.50628 43.8439C5.75788 44.6947 7.93849 44.9989 9.90657 44.9989C11.9511 44.9989 13.7662 44.6703 15.1912 44.285C17.6671 43.6155 19.4135 42.6757 20.0094 42.3288C20.8203 42.4625 21.6522 42.5333 22.5004 42.5333C23.3484 42.5333 24.1801 42.4626 24.9908 42.3289C25.5868 42.6759 27.333 43.6155 29.8088 44.285C31.7096 44.799 33.4718 45 35.0659 45C37.7215 45 39.9103 44.442 41.4937 43.8437C41.7578 43.7439 41.9554 43.5201 42.0218 43.2457C42.0883 42.9715 42.0148 42.6821 41.8257 42.4725ZM37.7651 27.2686V23.0292C37.7653 23.018 37.7653 23.0067 37.7651 22.9954V22.8655C38.8788 23.2266 39.6866 24.2734 39.6866 25.5058C39.6866 26.748 38.8662 27.8023 37.7388 28.1552C37.7556 27.8617 37.7651 27.5664 37.7651 27.2686ZM7.68369 9.71506C7.77602 9.5354 7.87434 9.35564 7.97607 9.1809C9.10085 7.24783 11.2521 6.03049 13.5903 6.00391C13.593 6.00391 13.5994 6.00381 13.6021 6.0037C13.8615 5.99825 14.1043 5.87528 14.2621 5.66948C16.1051 3.26544 18.8665 1.82586 21.8384 1.71986C25.331 1.59529 28.7707 2.4468 31.7851 4.18207C34.3198 5.64119 36.1811 7.50274 37.3173 9.71506C38.8297 12.6591 38.8745 15.8616 38.6266 21.3643C38.352 21.2502 38.0638 21.163 37.7651 21.105V20.2366C37.7651 19.765 37.3828 19.3826 36.9112 19.3826C36.4396 19.3826 36.0572 19.765 36.0572 20.2366V22.1761C24.2938 22.3017 17.9258 16.6357 16.2266 14.863C16.0267 14.6544 15.7348 14.5611 15.4513 14.6148C15.1675 14.6685 14.9301 14.862 14.8202 15.1292C13.5793 18.1478 11.4112 19.7271 7.9972 20.0992C7.56392 20.1464 7.23578 20.5123 7.23578 20.9482V21.1049C6.93678 21.1629 6.64825 21.2502 6.37348 21.3645C6.1254 15.8631 6.17056 12.6607 7.68369 9.71506ZM7.26204 28.1553C6.13458 27.8024 5.31424 26.7481 5.31424 25.5059C5.31424 24.2734 6.12199 23.2266 7.23567 22.8656V27.2686C7.23567 27.5664 7.24517 27.8617 7.26204 28.1553ZM5.1759 42.607C6.69874 40.0077 6.96283 35.6868 6.76919 29.7905C6.99592 29.8605 7.23055 29.9122 7.47094 29.9455C8.44223 35.4138 12.3352 39.8841 17.4725 41.6815C15.0017 42.7447 10.3251 44.1536 5.1759 42.607ZM22.5004 40.8253C15.0252 40.8253 8.94361 34.7438 8.94361 27.2685L8.94372 21.6935C12.1464 21.1665 14.4266 19.5898 15.8721 16.8996C17.1025 18.0221 19.0918 19.5614 21.8954 20.9106C26.1108 22.9392 30.8713 23.9398 36.0572 23.8844V27.2685C36.0572 34.7439 29.9756 40.8253 22.5004 40.8253ZM30.3108 42.6513C29.2158 42.3586 28.271 42.005 27.5252 41.6826C32.6642 39.8861 36.5585 35.415 37.53 29.9455C37.7702 29.9122 38.0045 29.8607 38.231 29.7907C38.0372 35.6877 38.3012 40.0087 39.8248 42.6079C36.8089 43.519 33.614 43.5343 30.3108 42.6513Z" fill="url(#paint1_linear)"/>
<path d="M12.2933 24.7378C11.9598 25.0712 11.9598 25.6119 12.2933 25.9454C12.6268 26.2789 13.1675 26.2789 13.501 25.9454C14.0484 25.3982 14.9388 25.3981 15.4862 25.9454C15.653 26.1121 15.8715 26.1955 16.0901 26.1955C16.3087 26.1955 16.5272 26.1121 16.694 25.9454C17.0275 25.6119 17.0275 25.0712 16.694 24.7378C15.4808 23.5245 13.5065 23.5244 12.2933 24.7378Z" fill="url(#paint2_linear)"/>
<path d="M32.7076 25.9455C33.0412 25.612 33.0412 25.0713 32.7076 24.7378C31.4943 23.5246 29.5201 23.5246 28.3069 24.7378C27.9734 25.0713 27.9734 25.612 28.3069 25.9455C28.6404 26.2789 29.1811 26.2789 29.5146 25.9455C30.062 25.3982 30.9526 25.3983 31.4998 25.9455C31.6666 26.1122 31.8851 26.1956 32.1037 26.1956C32.3223 26.1956 32.5408 26.1122 32.7076 25.9455Z" fill="url(#paint3_linear)"/>
</g>
<defs>
<linearGradient id="paint0_linear" x1="22.5004" y1="33.7502" x2="22.5004" y2="36.9294" gradientUnits="userSpaceOnUse">
<stop stop-color="#C6EBC2"/>
<stop offset="1" stop-color="#ACE8F0"/>
</linearGradient>
<linearGradient id="paint1_linear" x1="22.5" y1="0" x2="22.5" y2="45" gradientUnits="userSpaceOnUse">
<stop stop-color="#C6EBC2"/>
<stop offset="1" stop-color="#ACE8F0"/>
</linearGradient>
<linearGradient id="paint2_linear" x1="14.4936" y1="23.8278" x2="14.4936" y2="26.1955" gradientUnits="userSpaceOnUse">
<stop stop-color="#C6EBC2"/>
<stop offset="1" stop-color="#ACE8F0"/>
</linearGradient>
<linearGradient id="paint3_linear" x1="30.5073" y1="23.8279" x2="30.5073" y2="26.1956" gradientUnits="userSpaceOnUse">
<stop stop-color="#C6EBC2"/>
<stop offset="1" stop-color="#ACE8F0"/>
</linearGradient>
<clipPath id="clip0">
<rect width="45" height="45" fill="white"/>
</clipPath>
</defs>
</svg>
