<svg width="45" height="45" viewBox="0 0 45 45" fill="none" xmlns="http://www.w3.org/2000/svg">
<path d="M42.75 10.5H41.25V6.75C41.25 5.5095 40.2405 4.5 39 4.5H36C34.7595 4.5 33.75 5.5095 33.75 6.75V12.75H31.9845L31.8195 12.33C31.0245 10.3073 29.1067 9 26.9333 9H26.862C26.5515 8.12925 25.7265 7.5 24.75 7.5C24.1717 7.5 23.649 7.72575 23.25 8.085C22.851 7.725 22.3283 7.5 21.75 7.5C21.1717 7.5 20.649 7.72575 20.25 8.085C19.851 7.725 19.3283 7.5 18.75 7.5C18.1717 7.5 17.649 7.72575 17.25 8.085C16.851 7.725 16.3283 7.5 15.75 7.5C14.5095 7.5 13.5 8.5095 13.5 9.75V12.75H11.25V6.75C11.25 5.5095 10.2405 4.5 9 4.5H6C4.7595 4.5 3.75 5.5095 3.75 6.75V10.5H2.25C1.0095 10.5 0 11.5095 0 12.75V20.25C0 21.4905 1.0095 22.5 2.25 22.5H3.75V26.25C3.75 27.4905 4.7595 28.5 6 28.5H9C10.2405 28.5 11.25 27.4905 11.25 26.25V20.25H12.951L13.5353 22.0988C13.5615 22.1828 13.6027 22.2615 13.6567 22.332L15.6585 24.9217L14.376 38.3962C14.3242 38.934 14.5028 39.4717 14.8665 39.8715C15.2303 40.2705 15.7478 40.5 16.2885 40.5H26.4555C26.9977 40.5 27.5168 40.2698 27.8797 39.8678C28.2435 39.4658 28.4213 38.9265 28.3673 38.3865L27.057 25.2832C27.0427 25.146 27.0975 25.011 27.2018 24.9217L31.317 21.3945C31.677 21.0855 31.9298 20.6865 32.0835 20.25H33.75V26.25C33.75 27.4905 34.7595 28.5 36 28.5H39C40.2405 28.5 41.25 27.4905 41.25 26.25V22.5H42.75C43.9905 22.5 45 21.4905 45 20.25V12.75C45 11.5095 43.9905 10.5 42.75 10.5ZM3.75 21H2.25C1.836 21 1.5 20.6632 1.5 20.25V12.75C1.5 12.3368 1.836 12 2.25 12H3.75V21ZM9.75 13.5V19.5V26.25C9.75 26.6632 9.414 27 9 27H6C5.586 27 5.25 26.6632 5.25 26.25V21.75V11.25V6.75C5.25 6.33675 5.586 6 6 6H9C9.414 6 9.75 6.33675 9.75 6.75V13.5ZM24 9.75C24 9.33675 24.336 9 24.75 9C25.164 9 25.5 9.33675 25.5 9.75V13.5V14.1698C25.5 14.4548 25.3605 14.712 25.158 14.862C25.1362 14.877 25.116 14.8935 25.0928 14.9062C25.053 14.9295 25.0095 14.9423 24.966 14.9557C24.918 14.9707 24.8692 14.9813 24.8175 14.9858C24.7568 14.9903 24.6975 14.9858 24.639 14.9767C24.5955 14.97 24.552 14.9647 24.5115 14.9513C24.4515 14.931 24.396 14.898 24.342 14.862C24.3098 14.8403 24.2745 14.8237 24.246 14.7975C24.1927 14.7487 24.1537 14.6887 24.117 14.628C24.1012 14.6017 24.0788 14.5807 24.066 14.5522C24.0248 14.4585 24 14.3558 24 14.25V9.75ZM21 9.75C21 9.33675 21.336 9 21.75 9C22.164 9 22.5 9.33675 22.5 9.75V14.25C22.5 14.6632 22.164 15 21.75 15C21.336 15 21 14.6632 21 14.25V9.75ZM18 9.75C18 9.33675 18.336 9 18.75 9C19.164 9 19.5 9.33675 19.5 9.75V14.25C19.5 14.6632 19.164 15 18.75 15C18.336 15 18 14.6632 18 14.25V9.75ZM15 13.5V9.75C15 9.33675 15.336 9 15.75 9C16.164 9 16.5 9.33675 16.5 9.75V14.25C16.5 14.3558 16.4753 14.4585 16.4333 14.553C16.4205 14.5815 16.398 14.6025 16.3822 14.6287C16.3455 14.6895 16.3065 14.7488 16.2533 14.7983C16.2255 14.8238 16.1903 14.841 16.1588 14.862C16.104 14.898 16.0485 14.9318 15.987 14.952C15.948 14.9655 15.9053 14.97 15.864 14.9767C15.804 14.9858 15.744 14.991 15.6818 14.9858C15.6308 14.9813 15.582 14.9707 15.5347 14.9557C15.4905 14.9415 15.447 14.9288 15.4065 14.9055C15.3833 14.8935 15.3638 14.877 15.3428 14.862C15.1403 14.712 15 14.454 15 14.169V13.5ZM11.25 18.75V14.25H13.5C13.5 15.0735 13.9493 15.7868 14.6108 16.179C14.6513 16.2038 14.6932 16.224 14.7352 16.2465C14.8027 16.281 14.8695 16.3155 14.94 16.3425C15.0188 16.374 15.1013 16.3965 15.1845 16.4183C15.234 16.431 15.282 16.4475 15.333 16.4573C15.3488 16.4603 15.3622 16.4662 15.378 16.4692C15.4305 16.4782 15.4822 16.473 15.5347 16.4783C15.6067 16.485 15.6765 16.5 15.75 16.5C15.7718 16.5 15.792 16.494 15.813 16.4932C15.882 16.491 15.9487 16.4805 16.0163 16.473C16.1062 16.4625 16.1947 16.4505 16.281 16.4295C16.3455 16.4137 16.407 16.392 16.47 16.371C16.554 16.3425 16.6365 16.311 16.716 16.2735C16.7768 16.2443 16.8352 16.2113 16.8937 16.1768C16.9688 16.1318 17.04 16.0838 17.1097 16.0305C17.1413 16.0065 17.1772 15.99 17.2073 15.9645C17.2222 15.9517 17.2365 15.9397 17.2507 15.927C17.2943 15.966 17.3452 15.9967 17.3918 16.032C17.4382 16.068 17.4832 16.1048 17.5328 16.137C17.6033 16.1828 17.679 16.2195 17.7547 16.2577C17.805 16.2825 17.8522 16.311 17.904 16.332C17.991 16.3672 18.0833 16.392 18.1747 16.416C18.2213 16.428 18.2647 16.446 18.3127 16.4557C18.4545 16.4835 18.6 16.5 18.75 16.5C18.9 16.5 19.0455 16.4835 19.1873 16.4557C19.236 16.446 19.2803 16.428 19.3275 16.4152C19.4183 16.3905 19.5098 16.3672 19.596 16.332C19.6493 16.3102 19.6973 16.2817 19.7482 16.2562C19.8232 16.2187 19.8983 16.182 19.968 16.137C20.0182 16.1048 20.0632 16.0673 20.1097 16.0312C20.1562 15.996 20.2065 15.9653 20.25 15.9263C20.2935 15.9653 20.3438 15.9952 20.3903 16.0312C20.4375 16.0673 20.4825 16.1055 20.5328 16.1378C20.6025 16.1827 20.6775 16.2195 20.7525 16.257C20.8035 16.2825 20.8515 16.311 20.9047 16.3328C20.991 16.368 21.0818 16.392 21.1733 16.416C21.2205 16.4288 21.2655 16.4467 21.3135 16.4565C21.4545 16.4835 21.6 16.5 21.75 16.5C21.9 16.5 22.0455 16.4835 22.1873 16.4557C22.2345 16.446 22.2787 16.4288 22.3253 16.416C22.4175 16.3913 22.509 16.3672 22.596 16.332C22.6485 16.311 22.6957 16.2825 22.746 16.257C22.8217 16.2195 22.8967 16.182 22.9672 16.1362C23.0168 16.104 23.061 16.0673 23.1082 16.0312C23.1548 15.996 23.2057 15.9653 23.2493 15.9263C23.2635 15.939 23.2778 15.9517 23.2927 15.9637C23.3228 15.9893 23.3588 16.0057 23.3895 16.0297C23.4593 16.083 23.5312 16.1318 23.6077 16.1775C23.6647 16.2112 23.7218 16.2435 23.7817 16.272C23.8643 16.3117 23.949 16.3432 24.0368 16.3732C24.096 16.3935 24.1545 16.4138 24.2152 16.4288C24.3067 16.4513 24.4005 16.4633 24.495 16.4745C24.558 16.482 24.6195 16.4917 24.6833 16.4932C24.7057 16.494 24.7267 16.5 24.75 16.5C24.825 16.5 24.8962 16.485 24.969 16.4775C25.02 16.473 25.071 16.4775 25.1228 16.4692C25.14 16.4662 25.1558 16.4603 25.173 16.4573C25.2067 16.4505 25.239 16.4408 25.272 16.4325C25.368 16.4093 25.461 16.3815 25.551 16.3455C25.6005 16.3268 25.6485 16.3065 25.6958 16.284C25.7483 16.2585 25.7992 16.23 25.8495 16.2008C26.3977 15.8903 26.8057 15.3645 26.9445 14.7323C26.9775 14.8162 27 14.9055 27 15V17.6895L25.9395 18.75H11.25ZM30.75 19.3657C30.75 19.7085 30.6008 20.0325 30.3413 20.256L26.2268 23.7825C25.7498 24.1912 25.5022 24.8077 25.5645 25.4333L26.8748 38.5365C26.8905 38.6992 26.8147 38.8103 26.7675 38.862C26.721 38.913 26.6175 39 26.4548 39H16.2885C16.1265 39 16.023 38.9137 15.9765 38.862C15.93 38.8103 15.8535 38.7 15.8685 38.538L17.1795 24.768C17.1975 24.5782 17.1427 24.3893 17.0265 24.2378L14.925 21.5198L14.5238 20.25H25.9395C26.334 20.25 26.721 20.0903 27 19.8105L28.0605 18.75C28.344 18.4665 28.5 18.09 28.5 17.6895V15C28.5 14.0235 27.8708 13.1985 27 12.888V10.5008C28.5247 10.527 29.8635 11.454 30.423 12.8783L30.705 13.587C30.7342 13.6462 30.75 13.7115 30.75 13.776V19.3657ZM33.75 18.75H32.25V14.25H33.75V18.75ZM39.75 11.25V21.75V26.25C39.75 26.6632 39.414 27 39 27H36C35.586 27 35.25 26.6632 35.25 26.25V19.5V13.5V6.75C35.25 6.33675 35.586 6 36 6H39C39.414 6 39.75 6.33675 39.75 6.75V11.25ZM43.5 20.25C43.5 20.6632 43.164 21 42.75 21H41.25V12H42.75C43.164 12 43.5 12.3368 43.5 12.75V20.25Z" fill="url(#paint0_linear)"/>
<defs>
<linearGradient id="paint0_linear" x1="22.5" y1="4.5" x2="22.5" y2="40.5" gradientUnits="userSpaceOnUse">
<stop stop-color="#C6EBC2"/>
<stop offset="1" stop-color="#ACE8F0"/>
</linearGradient>
</defs>
</svg>
