<svg width="45" height="45" viewBox="0 0 45 45" fill="none" xmlns="http://www.w3.org/2000/svg">
<path d="M41.3375 34.645L40.8479 34.5327C45.5927 30.6456 46.6038 22.0145 42.1347 17.5173C40.415 15.7876 39.3878 13.0503 39.3878 10.1942C39.3878 6.05437 36.6645 2.68568 33.3164 2.68568C29.9694 2.68568 27.2451 6.05437 27.2451 10.1942C27.2451 11.1349 27.1339 12.0619 26.9224 12.9442C23.8033 9.3441 18.8502 8.93143 15.5381 11.2327V2.78833C15.5381 2.42235 15.2411 2.12537 14.8755 2.12537C14.5095 2.12537 14.2125 2.42235 14.2125 2.78833V5.39141C12.2326 1.81947 8.62974 0.863999 4.595 1.6763C4.18747 1.7587 3.95504 2.19266 4.11228 2.57787C4.14936 2.66817 5.04235 4.82046 6.76755 6.70497C8.8093 8.93555 11.3434 10.0431 14.2125 9.24866V11.2327C10.3189 8.52733 3.79952 9.4986 1.12125 15.6674C0.975676 16.0032 1.13017 16.3929 1.46594 16.5388C1.80206 16.6847 2.19173 16.5309 2.33764 16.1948C4.78863 10.5505 10.6495 10.0946 13.758 12.5429C14.4051 13.0874 15.3489 13.0846 15.9927 12.5429C19.5313 9.75575 25.6531 10.9687 27.7508 17.0672C28.8786 20.3518 28.6531 23.7867 26.6954 27.3398C25.9168 28.7326 25.2768 29.8907 24.7481 30.8551C20.6426 29.9707 20.0566 29.6472 18.6593 29.6775C18.2933 29.6847 18.0025 29.9868 18.0104 30.3528C18.0176 30.7198 18.319 31.0113 18.6867 31.0023C18.9271 30.9972 19.2 31.0096 19.488 31.0449L19.0905 34.6155C19.05 34.9791 19.3119 35.3069 19.6758 35.3475C20.0411 35.388 20.3676 35.1246 20.4082 34.7621L20.7927 31.3103C23.4407 31.9149 25.1642 32.309 27.2176 32.7787L27.0281 34.4813C26.9876 34.8452 27.2496 35.173 27.6135 35.2136C27.9788 35.2541 28.3053 34.9907 28.3458 34.6278L28.5185 33.0757C28.9281 33.1694 38.3372 35.3186 38.455 35.3457L37.9431 39.9418C37.9026 40.3057 38.1649 40.6336 38.5285 40.6741C38.8941 40.7146 39.2202 40.4513 39.2608 40.0888L39.7562 35.6431L41.0426 35.9373C42.6373 36.3012 43.6907 37.7827 43.5087 39.409C43.3285 41.0264 41.9644 42.249 40.3374 42.2524L33.552 42.2654L33.793 40.1039C33.8335 39.7399 33.5715 39.4121 33.2076 39.3716C32.8433 39.3314 32.5158 39.593 32.4753 39.9569L32.2178 42.2682L25.7146 42.2805L25.9408 40.2484C25.9813 39.8848 25.7194 39.5569 25.3555 39.5164C24.9926 39.4756 24.6637 39.7379 24.6231 40.1018C24.5668 40.6082 24.3859 42.2294 24.3804 42.2833L21.2668 42.2891L21.6609 38.7519C21.7015 38.3883 21.4395 38.0604 21.0756 38.0199C20.7113 37.979 20.3838 38.2413 20.3433 38.6053L19.9323 42.2919C19.9258 42.2919 19.921 42.2919 19.9172 42.2919C19.9169 42.2919 19.9162 42.2919 19.9158 42.2919C19.9148 42.2919 19.9138 42.2919 19.9127 42.2919C19.9127 42.2919 19.9124 42.2919 19.9121 42.2919C19.9107 42.2919 19.91 42.2919 19.9086 42.2919C19.8657 42.2919 19.6576 42.2922 18.8107 42.2939C16.2086 42.2939 13.978 40.5189 13.3439 38.0662C12.6933 35.561 13.8325 32.7636 16.3968 31.5451C16.7274 31.3879 16.8685 30.9927 16.7112 30.6621C16.554 30.3315 16.1588 30.19 15.8282 30.3476C14.5359 30.9608 13.4933 31.9279 12.7994 33.1104C11.4577 32.4412 9.92304 31.3886 9.10456 29.8385C8.04678 27.829 4.996 28.5836 4.9857 30.8523L2.90859 27.0761C1.48483 24.4891 0.963316 21.5857 1.58302 18.5891C1.65717 18.2304 1.42646 17.8795 1.06769 17.8053C0.708913 17.7312 0.358723 17.9619 0.284565 18.3206C-0.38011 21.5362 0.124576 24.7666 1.74644 27.7154L4.57852 32.8628L2.50312 32.6314C1.30218 32.4979 0.221737 33.361 0.0881835 34.5626C-0.0450261 35.7605 0.82015 36.844 2.01869 36.9776L5.45502 37.36C4.60289 38.1229 3.91693 38.8143 4.00311 39.9047C4.15211 41.8322 6.57701 42.6352 7.84421 41.1555C8.88723 39.935 10.517 39.181 12.1691 38.7742C13.0672 41.5815 15.7046 43.6198 18.8107 43.6198C19.8207 43.6178 39.1193 43.5807 40.3391 43.5783C42.8451 43.5735 44.8549 41.5427 44.8549 39.0509C44.8545 36.9298 43.4085 35.1178 41.3375 34.645ZM5.70153 2.83262C10.1095 2.23077 12.889 4.33157 13.8174 7.98213C10.2262 8.94894 7.40201 6.10999 5.70153 2.83262ZM39.119 34.1376L26.097 31.1623C26.4733 30.4729 26.8908 29.7121 27.3557 28.8751C28.5834 30.99 30.8723 32.4148 33.4878 32.4148C36.8527 32.4148 39.774 30.0232 40.4332 26.728C40.505 26.3692 40.2715 26.02 39.9127 25.9486C39.5529 25.8769 39.2048 26.1093 39.133 26.4681C38.5975 29.1453 36.2234 31.0892 33.4878 31.0892C31.066 31.0892 28.9888 29.5858 28.1395 27.4634C29.2409 25.367 29.7685 23.1519 29.7507 20.9546C33.0768 18.1105 38.205 19.9044 39.1145 24.1063C39.1924 24.4644 39.544 24.6917 39.9031 24.6138C40.2609 24.5362 40.4881 24.1832 40.4102 23.8255C40.0737 22.2689 39.2038 20.8537 37.9637 19.8409C35.6074 17.9179 32.2394 17.7009 29.6456 19.3832C29.4249 17.6409 28.8457 15.825 27.9204 14.3123C28.3455 13.0307 28.571 11.6358 28.571 10.1942C28.571 7.1355 30.4761 4.01159 33.3164 4.01159C36.1266 4.01159 38.0619 7.09361 38.0619 10.1942C38.0619 13.44 39.2038 16.4495 41.1944 18.4525C44.6468 21.9242 44.3128 28.3697 41.3138 32.1666C40.6622 32.9912 39.9206 33.6542 39.119 34.1376ZM11.8869 37.4689C9.99823 37.9282 8.08729 38.8312 6.83656 40.2937C6.52791 40.6546 5.9834 40.6968 5.62291 40.3885C5.26139 40.0785 5.21916 39.536 5.52849 39.1755C6.10562 38.5009 6.79708 37.9138 7.53282 37.4414C8.05467 37.1039 7.8655 36.2947 7.24649 36.2264C6.67245 36.1622 2.5996 35.7079 2.16529 35.6595C1.69425 35.6074 1.35299 35.1806 1.40517 34.7096C1.45736 34.2437 1.8745 33.8973 2.35618 33.9494C2.35893 33.9498 2.36167 33.9498 2.36408 33.9501C2.3627 33.9501 2.36133 33.9498 2.3603 33.9498C2.36339 33.9501 2.36854 33.9508 2.37609 33.9515C2.37575 33.9515 2.37541 33.9515 2.37472 33.9515C2.38193 33.9522 2.38708 33.9525 2.39017 33.9532C2.38777 33.9529 2.38433 33.9525 2.38056 33.9518C2.51617 33.9669 3.30822 34.0552 6.97252 34.4637C7.18332 34.4504 7.82568 34.7233 8.10651 34.1472C8.22942 33.8945 8.17999 33.5931 7.9836 33.3926C7.34022 32.7365 6.81081 32.0189 6.41049 31.2605C6.18871 30.8406 6.35041 30.3191 6.76927 30.0973H6.7703C7.19396 29.8745 7.71032 30.0383 7.93245 30.4571C8.90921 32.308 10.7007 33.5392 12.2422 34.3055C11.8903 35.298 11.7588 36.4008 11.8869 37.4689Z" fill="url(#paint0_linear)"/>
<defs>
<linearGradient id="paint0_linear" x1="22.4999" y1="1.40588" x2="22.4999" y2="43.6198" gradientUnits="userSpaceOnUse">
<stop stop-color="#C6EBC2"/>
<stop offset="1" stop-color="#ACE8F0"/>
</linearGradient>
</defs>
</svg>
