<svg width="40" height="40" viewBox="0 0 40 40" fill="none" xmlns="http://www.w3.org/2000/svg">
<g clip-path="url(#clip0)">
<path d="M10.8334 28.3335H7.5V30.0001H10.8334V28.3335Z" fill="url(#paint0_linear)"/>
<path d="M12.5 31.6665H7.5V33.3331H12.5V31.6665Z" fill="url(#paint1_linear)"/>
<path d="M39.2501 35.6359L30.0001 26.3848V5.83336C30.0001 4.45266 28.8808 3.33336 27.5001 3.33336H10.75C10.3639 1.43148 8.68254 0 6.66676 0C4.65098 0 2.96973 1.43148 2.58364 3.33336H2.50012C1.11942 3.33336 0.00012207 4.45266 0.00012207 5.83336V37.5C0.00012207 38.8807 1.11942 40 2.50012 40H27.5001C28.8808 40 30.0001 38.8807 30.0001 37.5V33.6148L35.636 39.25C36.1147 39.7309 36.7657 40.0009 37.4443 40C38.1226 39.9999 38.773 39.7302 39.2523 39.2503C40.2498 38.2516 40.2489 36.6334 39.2501 35.6359ZM6.66676 1.66664C7.7552 1.66664 8.68067 2.36242 9.02395 3.33328H4.30965C4.65286 2.36242 5.57833 1.66664 6.66676 1.66664ZM28.3335 37.5C28.3335 37.9602 27.9604 38.3334 27.5001 38.3334H2.50012C2.03989 38.3334 1.66676 37.9602 1.66676 37.5V5.83336C1.66676 5.37313 2.03989 5 2.50012 5H9.16676V14.1666C9.16676 14.6269 8.79364 15 8.3334 15C7.87317 15 7.50004 14.6269 7.50004 14.1666V6.66664H5.83348V14.1666C5.83348 15.5473 6.95278 16.6666 8.33348 16.6666C9.71418 16.6666 10.8335 15.5473 10.8335 14.1666V5H27.5001C27.9604 5 28.3335 5.37313 28.3335 5.83336V24.718L25.8335 22.2177V7.5C25.8335 7.03977 25.4604 6.66664 25.0001 6.66664H12.5001V8.33328H24.1668V20.7328L19.5393 18.4242C19.3043 18.3065 19.0276 18.3065 18.7927 18.4242C18.748 18.4466 18.7068 18.473 18.6681 18.5019L18.6668 18.5001L16.3018 20.2717L14.9684 15.6051C14.9295 15.4686 14.8565 15.3443 14.7561 15.244C14.4305 14.9186 13.9029 14.9188 13.5775 15.2442L11.3218 17.5H5.00012C4.53989 17.5 4.16676 17.8731 4.16676 18.3334V35.8334C4.16676 36.2936 4.53989 36.6667 5.00012 36.6667H25.0001C25.4604 36.6667 25.8335 36.2936 25.8335 35.8334V29.4487L28.3335 31.9484V37.5ZM21.8318 22.6342L21.0285 21.0291L22.634 21.832L21.8318 22.6342ZM24.1668 27.7821V35H5.83348V19.1666H11.6668C11.8873 19.1668 12.0989 19.0796 12.2552 18.9241L13.7552 17.4241L15.0318 21.895C15.0598 21.9931 15.1055 22.0854 15.1668 22.167C15.443 22.5351 15.9654 22.6095 16.3335 22.3333L18.8664 20.4336L20.8576 24.4166L20.8597 24.4156C20.8986 24.4929 20.9498 24.5655 21.0143 24.63L24.1668 27.7821ZM22.7818 24.0409L24.0409 22.7817L35.0493 33.7901L33.7902 35.0492L22.7818 24.0409ZM38.0735 38.0734C37.7257 38.4211 37.162 38.4211 36.8143 38.0734L34.9687 36.2277L36.2279 34.9686L38.0734 36.8141C38.4212 37.1619 38.4212 37.7256 38.0735 38.0734Z" fill="url(#paint2_linear)"/>
</g>
<defs>
<linearGradient id="paint0_linear" x1="9.16668" y1="28.3335" x2="9.16668" y2="30.0001" gradientUnits="userSpaceOnUse">
<stop stop-color="#C6EBC2"/>
<stop offset="0.734375" stop-color="#76E7ED"/>
</linearGradient>
<linearGradient id="paint1_linear" x1="10" y1="31.6665" x2="10" y2="33.3331" gradientUnits="userSpaceOnUse">
<stop stop-color="#C6EBC2"/>
<stop offset="0.734375" stop-color="#76E7ED"/>
</linearGradient>
<linearGradient id="paint2_linear" x1="20" y1="0" x2="20" y2="40" gradientUnits="userSpaceOnUse">
<stop stop-color="#C6EBC2"/>
<stop offset="0.734375" stop-color="#76E7ED"/>
</linearGradient>
<clipPath id="clip0">
<rect width="40" height="40" fill="white"/>
</clipPath>
</defs>
</svg>
