<svg width="40" height="40" viewBox="0 0 40 40" fill="none" xmlns="http://www.w3.org/2000/svg">
<path d="M38.3202 24.9802C36.2858 22.9971 33.1123 22.7853 30.8323 24.4802C30.5655 24.282 30.2861 24.1108 29.9982 23.9646V2.5007C29.9982 1.12008 28.879 0.000854492 27.4983 0.000854492H2.49985C1.11923 0.000854492 0 1.12008 0 2.5007V37.4986C0 38.8792 1.11923 39.9984 2.49985 39.9984H27.4983C28.3103 39.9984 29.0316 39.611 29.4883 39.0112L30.2482 39.7593C30.4038 39.9123 30.6132 39.9982 30.8315 39.9984C31.0498 39.9982 31.2592 39.9123 31.4148 39.7593L38.3203 32.9639C38.3501 32.9346 38.3797 32.9051 38.4089 32.8752C40.5645 30.6706 40.5248 27.1358 38.3202 24.9802ZM27.4983 38.3319H2.49985C2.03964 38.3319 1.66654 37.9588 1.66654 37.4986V2.5007C1.66654 2.0405 2.03964 1.66739 2.49985 1.66739H27.4983C27.9585 1.66739 28.3316 2.0405 28.3316 2.5007V23.4176C26.5648 23.1245 24.7019 23.658 23.3453 24.9802C23.3155 25.0094 23.2859 25.0389 23.2566 25.0689C21.101 27.2735 21.1407 30.8082 23.3453 32.9639L28.2702 37.8121C28.1462 38.1168 27.8476 38.3319 27.4983 38.3319ZM37.1502 31.7781L30.8315 37.9986L24.5135 31.774C24.49 31.751 24.4667 31.7278 24.4438 31.7042C22.9337 30.1557 22.9649 27.6761 24.5135 26.166C25.2779 25.4151 26.3076 24.9959 27.3792 24.9994C28.4527 24.9966 29.4839 25.4173 30.249 26.1702C30.5731 26.4878 31.0916 26.4878 31.4156 26.1702C33.0099 24.6126 35.556 24.6126 37.1502 26.1702C37.1738 26.1932 37.197 26.2165 37.22 26.24C38.7301 27.7885 38.6988 30.2681 37.1502 31.7781Z" fill="url(#paint0_linear)"/>
<path d="M19.9987 11.6671H17.4989V9.16729C17.4989 8.70709 17.1258 8.33398 16.6656 8.33398H13.3324C12.8722 8.33398 12.4991 8.70709 12.4991 9.16729V11.6671H9.99926C9.53906 11.6671 9.16595 12.0402 9.16595 12.5005V15.8336C9.16595 16.2938 9.53906 16.6669 9.99926 16.6669H12.4991V19.1668C12.4991 19.627 12.8722 20.0001 13.3324 20.0001H16.6656C17.1258 20.0001 17.4989 19.627 17.4989 19.1668V16.6669H19.9987C20.4589 16.6669 20.832 16.2938 20.832 15.8336V12.5005C20.832 12.0402 20.4589 11.6671 19.9987 11.6671ZM19.1654 15.0002H16.6656C16.2054 15.0002 15.8323 15.3733 15.8323 15.8335V18.3334H14.1657V15.8335C14.1657 15.3733 13.7926 15.0002 13.3324 15.0002H10.8326V13.3337H13.3324C13.7926 13.3337 14.1657 12.9606 14.1657 12.5004V10.0005H15.8323V12.5004C15.8323 12.9606 16.2054 13.3337 16.6656 13.3337H19.1654V15.0002Z" fill="url(#paint1_linear)"/>
<path d="M4.16642 3.33435C3.70622 3.33435 3.33319 3.70745 3.33319 4.16766V7.50082H4.99973V5.00097H7.49958V3.33435H4.16642Z" fill="url(#paint2_linear)"/>
<path d="M25.8317 3.33435H22.4987V5.00089H24.9985V7.50074H26.665V4.16766C26.665 3.70745 26.2919 3.33435 25.8317 3.33435Z" fill="url(#paint3_linear)"/>
<path d="M20.8316 24.9993H9.16583V26.6658H20.8316V24.9993Z" fill="url(#paint4_linear)"/>
<path d="M20.8316 29.1663H9.16583V30.8328H20.8316V29.1663Z" fill="url(#paint5_linear)"/>
<path d="M20.8316 33.3324H9.16583V34.9989H20.8316V33.3324Z" fill="url(#paint6_linear)"/>
<defs>
<linearGradient id="paint0_linear" x1="20" y1="0.000854492" x2="20" y2="39.9984" gradientUnits="userSpaceOnUse">
<stop stop-color="#C6EBC2"/>
<stop offset="0.734375" stop-color="#76E7ED"/>
</linearGradient>
<linearGradient id="paint1_linear" x1="14.999" y1="8.33398" x2="14.999" y2="20.0001" gradientUnits="userSpaceOnUse">
<stop stop-color="#C6EBC2"/>
<stop offset="0.734375" stop-color="#76E7ED"/>
</linearGradient>
<linearGradient id="paint2_linear" x1="5.41639" y1="3.33435" x2="5.41639" y2="7.50082" gradientUnits="userSpaceOnUse">
<stop stop-color="#C6EBC2"/>
<stop offset="0.734375" stop-color="#76E7ED"/>
</linearGradient>
<linearGradient id="paint3_linear" x1="24.5819" y1="3.33435" x2="24.5819" y2="7.50074" gradientUnits="userSpaceOnUse">
<stop stop-color="#C6EBC2"/>
<stop offset="0.734375" stop-color="#76E7ED"/>
</linearGradient>
<linearGradient id="paint4_linear" x1="14.9987" y1="24.9993" x2="14.9987" y2="26.6658" gradientUnits="userSpaceOnUse">
<stop stop-color="#C6EBC2"/>
<stop offset="0.734375" stop-color="#76E7ED"/>
</linearGradient>
<linearGradient id="paint5_linear" x1="14.9987" y1="29.1663" x2="14.9987" y2="30.8328" gradientUnits="userSpaceOnUse">
<stop stop-color="#C6EBC2"/>
<stop offset="0.734375" stop-color="#76E7ED"/>
</linearGradient>
<linearGradient id="paint6_linear" x1="14.9987" y1="33.3324" x2="14.9987" y2="34.9989" gradientUnits="userSpaceOnUse">
<stop stop-color="#C6EBC2"/>
<stop offset="0.734375" stop-color="#76E7ED"/>
</linearGradient>
</defs>
</svg>
