<svg width="42" height="42" viewBox="0 0 42 42" fill="none" xmlns="http://www.w3.org/2000/svg">
<path d="M31.7 29.2896L11.3196 8.90915C11.1834 8.7729 10.9954 8.70129 10.8035 8.7108C10.6111 8.72081 10.4319 8.81186 10.3105 8.96132C10.2726 9.008 9.38132 10.1263 9.31701 12.0257C9.2344 14.468 10.4856 16.9997 13.0363 19.5504L18.1414 24.6555C18.5815 25.0956 19.1667 25.338 19.7893 25.338C20.4117 25.338 20.9969 25.0956 21.437 24.6555C21.4721 24.6204 21.5119 24.6131 21.5393 24.6131C21.5667 24.6131 21.6065 24.6205 21.6416 24.6555L22.4666 25.4805C22.4982 25.5121 22.4852 25.5935 22.4557 25.6575C22.053 26.5381 22.2425 27.59 22.9275 28.2749L27.821 33.1686C28.3558 33.7033 29.0582 33.9707 29.7605 33.9707C30.4629 33.9707 31.1653 33.7033 31.7 33.1686C32.7695 32.0991 32.7695 30.359 31.7 29.2896ZM30.738 32.2064C30.1991 32.7453 29.3223 32.7453 28.7834 32.2064L23.8898 27.3128C23.6046 27.0276 23.5256 26.59 23.6933 26.2235C23.9679 25.6229 23.8641 24.9537 23.4288 24.5185L22.6037 23.6934C22.3194 23.4091 21.9413 23.2525 21.5393 23.2525C21.1371 23.2525 20.7591 23.4092 20.4748 23.6934C20.2916 23.8766 20.0482 23.9774 19.7892 23.9774C19.5302 23.9774 19.2867 23.8765 19.1035 23.6934L13.9985 18.5883C10.048 14.6379 10.481 11.7593 10.9923 10.5061L30.738 30.2518C31.2769 30.7907 31.2769 31.6676 30.738 32.2064Z" fill="url(#paint0_linear)"/>
<path d="M32.3157 10.3082C32.05 10.0425 31.6191 10.0425 31.3536 10.3082L27.0116 14.6502C26.7458 14.9159 26.7458 15.3467 27.0116 15.6124C27.1444 15.7452 27.3186 15.8117 27.4926 15.8117C27.6667 15.8117 27.8408 15.7454 27.9737 15.6124L32.3157 11.2703C32.5813 11.0046 32.5813 10.5738 32.3157 10.3082Z" fill="url(#paint1_linear)"/>
<path d="M30.4672 7.90435C30.2015 7.63865 29.7707 7.63865 29.5051 7.90435L25.0792 12.3303C24.4007 13.0087 24.0002 13.8708 23.9805 14.6955L23.9502 15.9615L22.7167 17.195C22.451 17.4607 22.451 17.8915 22.7167 18.157C22.8495 18.2899 23.0236 18.3564 23.1978 18.3564C23.3718 18.3564 23.546 18.2899 23.6788 18.157L25.1047 16.7311C25.2283 16.6075 25.2996 16.4411 25.3038 16.2664L25.3407 14.728C25.3521 14.2564 25.6139 13.7197 26.0413 13.2922L30.4671 8.86641C30.7329 8.60072 30.7329 8.16989 30.4672 7.90435Z" fill="url(#paint2_linear)"/>
<path d="M18.8365 26.7039C18.5709 26.4382 18.1402 26.4382 17.8745 26.7039L12.4315 32.1469C12.1704 32.408 11.8233 32.5517 11.4541 32.5517C11.085 32.5517 10.7378 32.4079 10.4768 32.1469C10.2157 31.8858 10.072 31.5387 10.072 31.1696C10.072 30.8004 10.2158 30.4533 10.4768 30.1923L15.7309 24.9382C15.9966 24.6725 15.9966 24.2417 15.7309 23.9761C15.4652 23.7104 15.0344 23.7104 14.7689 23.9761L9.51476 29.2302C8.99673 29.7483 8.71143 30.4371 8.71143 31.1697C8.71143 31.9024 8.99681 32.5911 9.51476 33.1092C10.0327 33.6272 10.7216 33.9125 11.4542 33.9125C12.1868 33.9125 12.8756 33.6271 13.3937 33.1092L18.8367 27.6661C19.1022 27.4003 19.1022 26.9694 18.8365 26.7039Z" fill="url(#paint3_linear)"/>
<path d="M34.8214 12.2584C34.5557 11.9927 34.1248 11.9927 33.8593 12.2584L29.4336 16.6841C29.0132 17.1045 28.4742 17.349 27.9836 17.3438L26.3843 17.3195C26.2021 17.317 26.023 17.3886 25.8929 17.5187L24.4669 18.9447C24.2012 19.2104 24.2012 19.6412 24.4669 19.9068C24.5997 20.0396 24.7739 20.1061 24.9479 20.1061C25.122 20.1061 25.2962 20.0398 25.429 19.9068L26.6514 18.6844L27.9629 18.7042C28.8246 18.7174 29.7103 18.3316 30.3956 17.6462L34.8214 13.2204C35.0871 12.9547 35.0871 12.524 34.8214 12.2584Z" fill="url(#paint4_linear)"/>
<path d="M35.8492 6.15079C31.8829 2.18433 26.6093 0 21 0C15.3907 0 10.1171 2.18433 6.15079 6.15079C2.18449 10.1172 0 15.3907 0 21C0 26.6093 2.18433 31.8829 6.15079 35.8492C10.1172 39.8155 15.3907 42 21 42C26.6093 42 31.8829 39.8157 35.8492 35.8492C39.8155 31.8828 42 26.6093 42 21C42 15.3907 39.8157 10.1171 35.8492 6.15079ZM34.8871 34.8871C31.1777 38.5965 26.2459 40.6393 21 40.6393C15.7541 40.6393 10.8223 38.5965 7.11285 34.8871C3.40356 31.1777 1.36065 26.2458 1.36065 21C1.36065 15.7542 3.40356 10.8223 7.11285 7.11285C10.8223 3.40356 15.7542 1.36065 21 1.36065C26.2458 1.36065 31.1777 3.40348 34.8871 7.11285C38.5965 10.8223 40.6393 15.7541 40.6393 21C40.6393 26.2459 38.5964 31.1777 34.8871 34.8871Z" fill="url(#paint5_linear)"/>
<defs>
<linearGradient id="paint0_linear" x1="20.9076" y1="8.70996" x2="20.9076" y2="33.9707" gradientUnits="userSpaceOnUse">
<stop stop-color="#EACD83"/>
<stop offset="0.401042" stop-color="#DE9D5D"/>
</linearGradient>
<linearGradient id="paint1_linear" x1="29.6636" y1="10.1089" x2="29.6636" y2="15.8117" gradientUnits="userSpaceOnUse">
<stop stop-color="#EACD83"/>
<stop offset="0.401042" stop-color="#DE9D5D"/>
</linearGradient>
<linearGradient id="paint2_linear" x1="26.592" y1="7.70508" x2="26.592" y2="18.3564" gradientUnits="userSpaceOnUse">
<stop stop-color="#EACD83"/>
<stop offset="0.401042" stop-color="#DE9D5D"/>
</linearGradient>
<linearGradient id="paint3_linear" x1="13.8736" y1="23.7769" x2="13.8736" y2="33.9125" gradientUnits="userSpaceOnUse">
<stop stop-color="#EACD83"/>
<stop offset="0.401042" stop-color="#DE9D5D"/>
</linearGradient>
<linearGradient id="paint4_linear" x1="29.6441" y1="12.0591" x2="29.6441" y2="20.1061" gradientUnits="userSpaceOnUse">
<stop stop-color="#EACD83"/>
<stop offset="0.401042" stop-color="#DE9D5D"/>
</linearGradient>
<linearGradient id="paint5_linear" x1="21" y1="0" x2="21" y2="42" gradientUnits="userSpaceOnUse">
<stop stop-color="#EACD83"/>
<stop offset="0.401042" stop-color="#DE9D5D"/>
</linearGradient>
</defs>
</svg>
