<svg width="40" height="40" viewBox="0 0 40 40" fill="none" xmlns="http://www.w3.org/2000/svg">
<g clip-path="url(#clip0)">
<path d="M37.7365 10.6146H32.5073V11.7853H37.7365C38.3176 11.7853 38.7903 12.258 38.7903 12.8391C38.7903 13.4201 38.3176 13.8928 37.7365 13.8928H29.0341V11.7853H31.3367V10.6146H22.3221V9.20227C23.4048 8.46405 24.1171 7.22107 24.1171 5.81451V4.0976C24.1171 1.83807 22.2791 0 20.0195 0C17.76 0 15.9219 1.83807 15.9219 4.0976V5.81451C15.9219 7.22107 16.6345 8.46405 17.7173 9.20227V10.6146H2.30255C1.07605 10.6146 0.078125 11.6125 0.078125 12.8391C0.078125 14.0656 1.07605 15.0635 2.30255 15.0635H5.89264V13.8928H2.30255C1.7215 13.8928 1.24878 13.4201 1.24878 12.8391C1.24878 12.258 1.7215 11.7853 2.30255 11.7853H11.0049V13.8928H7.0636V15.0635H14.7513V21.8344C14.3024 21.926 13.8913 22.121 13.5425 22.3926L11.2085 20.0586H4.56604V21.2292H10.7236L12.778 23.2837C12.5436 23.7042 12.41 24.1879 12.41 24.7025C12.41 26.116 13.4171 27.2983 14.7513 27.5702V35.6293H15.9219V27.5702C17.0673 27.337 17.9712 26.4328 18.2047 25.2878H24.1171V28.5269H25.2878V22.0288C25.7367 21.9373 26.1478 21.7426 26.4969 21.4709L28.7918 23.7659H35.9415V22.5952H29.2767L27.2614 20.5798C27.4954 20.1593 27.6294 19.6756 27.6294 19.1611C27.6294 17.7475 26.622 16.5649 25.2878 16.293V15.0635H37.7365C38.963 15.0635 39.9609 14.0656 39.9609 12.8391C39.9609 11.6125 38.9633 10.6146 37.7365 10.6146ZM20.0195 1.17065C21.6336 1.17065 22.9465 2.48352 22.9465 4.0976V4.74945L21.7157 3.12195H17.2604C17.6633 1.98639 18.7476 1.17065 20.0195 1.17065ZM17.0929 5.81451V4.2926H21.1331L22.8494 6.56219C22.518 7.81525 21.3751 8.74146 20.0195 8.74146C18.4058 8.74146 17.0929 7.42859 17.0929 5.81451ZM21.1514 9.75189V11.011C20.8765 11.3516 20.4642 11.5512 20.0195 11.5512C19.5752 11.5512 19.1629 11.3516 18.8879 11.011V9.75189C19.2477 9.85565 19.6271 9.91211 20.0195 9.91211C20.4123 9.91211 20.7916 9.85565 21.1514 9.75189ZM15.3366 26.4584C14.3683 26.4584 13.5806 25.6708 13.5806 24.7025C13.5806 23.7341 14.3683 22.9465 15.3366 22.9465C16.3049 22.9465 17.0929 23.7341 17.0929 24.7025C17.0929 25.6708 16.3049 26.4584 15.3366 26.4584ZM26.4587 19.1611C26.4587 20.1294 25.6708 20.9171 24.7025 20.9171C23.7341 20.9171 22.9465 20.1294 22.9465 19.1611C22.9465 18.1927 23.7341 17.4048 24.7025 17.4048C25.6708 17.4048 26.4587 18.1927 26.4587 19.1611ZM27.8635 13.8928H24.1171V16.293C22.7829 16.5649 21.7758 17.7475 21.7758 19.1611C21.7758 20.5743 22.7829 21.7569 24.1171 22.0288V24.1171H18.2047C17.9712 22.9718 17.0673 22.0679 15.9219 21.8344V13.8928H12.1756V11.7853H18.0078C18.5037 12.377 19.2343 12.7219 20.0195 12.7219C20.8051 12.7219 21.5353 12.377 22.0312 11.7853H27.8635V13.8928Z" fill="url(#paint0_linear)"/>
<path d="M14.7513 36.7999H15.9219V39.9219H14.7513V36.7999Z" fill="url(#paint1_linear)"/>
<path d="M19.4342 28.9169H20.6049V40H19.4342V28.9169Z" fill="url(#paint2_linear)"/>
<path d="M3.43414 3.35602H9.09271V2.18536H2.26349V9.01459H3.43414V3.35602Z" fill="url(#paint3_linear)"/>
<path d="M3.43414 30.8682H2.26349V37.6974H9.09271V36.5268H3.43414V30.8682Z" fill="url(#paint4_linear)"/>
<path d="M36.6049 9.01459H37.7756V2.18536H30.9464V3.35602H36.6049V9.01459Z" fill="url(#paint5_linear)"/>
<path d="M36.6049 36.5268H30.9464V37.6974H37.7756V30.8682H36.6049V36.5268Z" fill="url(#paint6_linear)"/>
<path d="M32.9758 31.3757V30.2048H28.3624L26.362 32.2055C26.0437 31.9855 25.6799 31.8268 25.2881 31.7468V29.6976H24.1171V31.7468C22.7829 32.0187 21.7758 33.2013 21.7758 34.6146C21.7758 36.0281 22.7829 37.2107 24.1171 37.4826V39.9219H25.2881V37.4826C26.6223 37.2107 27.6294 36.0281 27.6294 34.6146C27.6294 34.0393 27.4619 33.5025 27.1738 33.0493L28.8473 31.3757H32.9758ZM24.7025 36.3709C23.7341 36.3709 22.9465 35.5829 22.9465 34.6146C22.9465 33.6462 23.7341 32.8586 24.7025 32.8586C25.6708 32.8586 26.4587 33.6462 26.4587 34.6146C26.4587 35.5829 25.6708 36.3709 24.7025 36.3709Z" fill="url(#paint7_linear)"/>
<path d="M17.0929 14.9072H18.2635V18.0292H17.0929V14.9072Z" fill="url(#paint8_linear)"/>
<path d="M17.0929 19.2001H18.2635V20.3708H17.0929V19.2001Z" fill="url(#paint9_linear)"/>
</g>
<defs>
<linearGradient id="paint0_linear" x1="20.0195" y1="0" x2="20.0195" y2="35.6293" gradientUnits="userSpaceOnUse">
<stop stop-color="#C6EBC2"/>
<stop offset="0.734375" stop-color="#76E7ED"/>
</linearGradient>
<linearGradient id="paint1_linear" x1="15.3366" y1="36.7999" x2="15.3366" y2="39.9219" gradientUnits="userSpaceOnUse">
<stop stop-color="#C6EBC2"/>
<stop offset="0.734375" stop-color="#76E7ED"/>
</linearGradient>
<linearGradient id="paint2_linear" x1="20.0195" y1="28.9169" x2="20.0195" y2="40" gradientUnits="userSpaceOnUse">
<stop stop-color="#C6EBC2"/>
<stop offset="0.734375" stop-color="#76E7ED"/>
</linearGradient>
<linearGradient id="paint3_linear" x1="5.6781" y1="2.18536" x2="5.6781" y2="9.01459" gradientUnits="userSpaceOnUse">
<stop stop-color="#C6EBC2"/>
<stop offset="0.734375" stop-color="#76E7ED"/>
</linearGradient>
<linearGradient id="paint4_linear" x1="5.6781" y1="30.8682" x2="5.6781" y2="37.6974" gradientUnits="userSpaceOnUse">
<stop stop-color="#C6EBC2"/>
<stop offset="0.734375" stop-color="#76E7ED"/>
</linearGradient>
<linearGradient id="paint5_linear" x1="34.361" y1="2.18536" x2="34.361" y2="9.01459" gradientUnits="userSpaceOnUse">
<stop stop-color="#C6EBC2"/>
<stop offset="0.734375" stop-color="#76E7ED"/>
</linearGradient>
<linearGradient id="paint6_linear" x1="34.361" y1="30.8682" x2="34.361" y2="37.6974" gradientUnits="userSpaceOnUse">
<stop stop-color="#C6EBC2"/>
<stop offset="0.734375" stop-color="#76E7ED"/>
</linearGradient>
<linearGradient id="paint7_linear" x1="27.3758" y1="29.6976" x2="27.3758" y2="39.9219" gradientUnits="userSpaceOnUse">
<stop stop-color="#C6EBC2"/>
<stop offset="0.734375" stop-color="#76E7ED"/>
</linearGradient>
<linearGradient id="paint8_linear" x1="17.6782" y1="14.9072" x2="17.6782" y2="18.0292" gradientUnits="userSpaceOnUse">
<stop stop-color="#C6EBC2"/>
<stop offset="0.734375" stop-color="#76E7ED"/>
</linearGradient>
<linearGradient id="paint9_linear" x1="17.6782" y1="19.2001" x2="17.6782" y2="20.3708" gradientUnits="userSpaceOnUse">
<stop stop-color="#C6EBC2"/>
<stop offset="0.734375" stop-color="#76E7ED"/>
</linearGradient>
<clipPath id="clip0">
<rect width="40" height="40" fill="white"/>
</clipPath>
</defs>
</svg>
